<?xml version="1.0" standalone="no"?><!DOCTYPE svg PUBLIC "-//W3C//DTD SVG 1.1//EN" "http://www.w3.org/Graphics/SVG/1.1/DTD/svg11.dtd"><svg width="100%" height="100%" viewBox="0 0 160 84" version="1.1" xmlns="http://www.w3.org/2000/svg" xmlns:xlink="http://www.w3.org/1999/xlink" xml:space="preserve" style="fill-rule:evenodd;clip-rule:evenodd;stroke-linejoin:round;stroke-miterlimit:1.41421;"><path d="M35.959,61.061c-0.791,-0.289 -1.58,-0.586 -2.367,-0.89c-0.174,0.45 -0.349,0.903 -0.524,1.354c0.772,0.3 1.546,0.591 2.323,0.876c-0.099,0.268 -0.197,0.537 -0.296,0.805c-0.781,-0.286 -1.56,-0.579 -2.338,-0.88c-0.243,0.628 -0.487,1.257 -0.73,1.885c0.814,0.314 1.628,0.621 2.445,0.92c-0.098,0.268 -0.196,0.537 -0.295,0.807c-1.131,-0.415 -2.259,-0.844 -3.383,-1.288c0.742,-1.875 1.485,-3.75 2.227,-5.625c1.073,0.425 2.15,0.834 3.232,1.23c-0.098,0.269 -0.196,0.536 -0.294,0.806" style="fill:#fff;fill-rule:nonzero;"/><path d="M40.687,62.727c-0.289,0.061 -0.579,0.12 -0.869,0.18c-0.063,-0.274 -0.143,-0.467 -0.243,-0.577c-0.102,-0.121 -0.256,-0.217 -0.459,-0.285c-0.249,-0.084 -0.478,-0.086 -0.69,-0.007c-0.209,0.077 -0.351,0.217 -0.42,0.419c-0.097,0.279 0.042,0.58 0.421,0.899c0.174,0.146 0.348,0.291 0.522,0.436c0.428,0.351 0.713,0.699 0.853,1.046c0.14,0.345 0.148,0.717 0.021,1.112c-0.171,0.531 -0.499,0.908 -0.992,1.13c-0.494,0.224 -1.029,0.24 -1.597,0.049c-0.538,-0.182 -0.931,-0.485 -1.177,-0.9c-0.241,-0.415 -0.306,-0.904 -0.201,-1.466c0.333,0.047 0.666,0.091 0.999,0.136c-0.074,0.35 -0.082,0.607 -0.019,0.772c0.106,0.313 0.341,0.532 0.708,0.657c0.289,0.098 0.563,0.088 0.813,-0.03c0.251,-0.117 0.422,-0.315 0.513,-0.593c0.039,-0.111 0.055,-0.218 0.052,-0.323c0,-0.104 -0.025,-0.206 -0.069,-0.307c-0.044,-0.101 -0.11,-0.204 -0.197,-0.31c-0.088,-0.104 -0.198,-0.213 -0.329,-0.326c-0.169,-0.143 -0.338,-0.285 -0.506,-0.429c-0.716,-0.613 -0.955,-1.243 -0.73,-1.878c0.151,-0.428 0.448,-0.725 0.888,-0.895c0.442,-0.173 0.914,-0.173 1.419,-0.003c0.681,0.229 1.108,0.725 1.289,1.493" style="fill:#fff;fill-rule:nonzero;"/><path d="M43.91,63.68c-0.488,1.661 -0.976,3.321 -1.465,4.98c-0.314,-0.092 -0.627,-0.187 -0.942,-0.28c0.501,-1.656 1.001,-3.314 1.501,-4.97c-0.46,-0.139 -0.919,-0.28 -1.379,-0.425c0.086,-0.273 0.171,-0.546 0.257,-0.819c1.209,0.38 2.424,0.742 3.642,1.086c-0.078,0.275 -0.156,0.551 -0.233,0.826c-0.461,-0.129 -0.921,-0.263 -1.381,-0.398" style="fill:#fff;fill-rule:nonzero;"/><path d="M44.761,68.864c0.041,-0.14 0.128,-0.247 0.267,-0.32c0.139,-0.074 0.285,-0.089 0.439,-0.048c0.154,0.043 0.272,0.13 0.355,0.263c0.082,0.132 0.105,0.271 0.066,0.415c-0.039,0.146 -0.127,0.256 -0.266,0.33c-0.137,0.071 -0.283,0.086 -0.441,0.044c-0.159,-0.044 -0.28,-0.131 -0.36,-0.26c-0.081,-0.131 -0.1,-0.273 -0.06,-0.424" style="fill:#fff;fill-rule:nonzero;"/><path d="M51.785,70.171c0.782,0.173 1.564,0.337 2.348,0.495c-0.056,0.281 -0.113,0.561 -0.169,0.841c-1.423,-0.286 -2.843,-0.595 -4.258,-0.928c0.926,-0.653 1.838,-1.316 2.738,-1.987c0.266,-0.202 0.489,-0.379 0.671,-0.528c0.182,-0.152 0.322,-0.282 0.424,-0.388c0.202,-0.208 0.323,-0.409 0.362,-0.601c0.057,-0.276 0.006,-0.527 -0.155,-0.757c-0.163,-0.228 -0.388,-0.374 -0.683,-0.439c-0.615,-0.133 -1.045,0.14 -1.296,0.825c-0.308,-0.07 -0.615,-0.14 -0.921,-0.212c0.441,-1.207 1.224,-1.674 2.365,-1.426c0.551,0.12 0.977,0.387 1.283,0.808c0.308,0.421 0.413,0.883 0.311,1.391c-0.065,0.322 -0.218,0.62 -0.459,0.894c-0.125,0.143 -0.297,0.307 -0.518,0.491c-0.222,0.185 -0.498,0.4 -0.834,0.645c-0.4,0.293 -0.804,0.586 -1.209,0.876" style="fill:#fff;fill-rule:nonzero;"/><path d="M56.76,68.929c-0.122,0.66 -0.102,1.231 0.061,1.713c0.164,0.472 0.437,0.741 0.814,0.808c0.377,0.064 0.722,-0.098 1.04,-0.488c0.316,-0.386 0.526,-0.907 0.633,-1.558c0.106,-0.652 0.074,-1.213 -0.094,-1.684c-0.166,-0.467 -0.432,-0.732 -0.793,-0.794c-0.358,-0.063 -0.695,0.097 -1.011,0.481c-0.315,0.381 -0.533,0.888 -0.65,1.522M55.834,68.752c0.181,-0.947 0.555,-1.659 1.114,-2.138c0.501,-0.436 1.037,-0.603 1.612,-0.503c0.576,0.1 1.022,0.437 1.349,1.017c0.363,0.64 0.473,1.449 0.321,2.426c-0.153,0.977 -0.507,1.712 -1.071,2.203c-0.505,0.445 -1.062,0.616 -1.663,0.512c-0.602,-0.105 -1.071,-0.453 -1.404,-1.045c-0.367,-0.652 -0.449,-1.478 -0.258,-2.472" style="fill:#fff;fill-rule:nonzero;"/><path d="M62.697,67.729c-0.355,-0.048 -0.709,-0.1 -1.064,-0.152c0.212,-0.258 0.424,-0.516 0.633,-0.775c0.491,0.071 0.982,0.138 1.474,0.203c-0.264,2 -0.528,3.998 -0.791,5.998c-0.324,-0.043 -0.646,-0.087 -0.968,-0.132c0.239,-1.714 0.478,-3.427 0.716,-5.142" style="fill:#fff;fill-rule:nonzero;"/><path d="M67.022,70.654c0.026,-0.259 0.054,-0.516 0.081,-0.775c0.399,0.041 0.671,0.025 0.819,-0.048c0.259,-0.127 0.405,-0.358 0.436,-0.691c0.024,-0.257 -0.044,-0.475 -0.205,-0.653c-0.158,-0.181 -0.375,-0.284 -0.652,-0.312c-0.258,-0.026 -0.465,0.014 -0.619,0.12c-0.149,0.111 -0.274,0.309 -0.373,0.599c-0.311,-0.034 -0.622,-0.069 -0.933,-0.105c0.162,-0.555 0.407,-0.946 0.733,-1.177c0.327,-0.231 0.756,-0.317 1.287,-0.263c0.539,0.055 0.961,0.253 1.274,0.596c0.312,0.341 0.448,0.754 0.405,1.244c-0.048,0.552 -0.31,0.961 -0.795,1.227c0.495,0.341 0.718,0.84 0.66,1.503c-0.046,0.54 -0.276,0.966 -0.697,1.275c-0.421,0.307 -0.939,0.432 -1.546,0.37c-0.775,-0.08 -1.321,-0.411 -1.632,-0.986c-0.129,-0.24 -0.19,-0.56 -0.184,-0.96c0.307,0.036 0.616,0.071 0.924,0.105c0.017,0.297 0.112,0.532 0.287,0.708c0.176,0.175 0.418,0.279 0.726,0.31c0.313,0.032 0.581,-0.039 0.803,-0.215c0.223,-0.182 0.348,-0.426 0.377,-0.732c0.037,-0.406 -0.086,-0.709 -0.371,-0.909c-0.167,-0.116 -0.436,-0.193 -0.805,-0.231" style="fill:#fff;fill-rule:nonzero;"/><path d="M73.485,69.614c0.345,0.019 0.634,0.16 0.871,0.422c0.238,0.259 0.352,0.563 0.336,0.91c-0.015,0.355 -0.156,0.649 -0.424,0.882c-0.266,0.235 -0.581,0.343 -0.944,0.325c-0.356,-0.021 -0.66,-0.163 -0.904,-0.427c-0.238,-0.266 -0.345,-0.573 -0.323,-0.918c0.023,-0.356 0.17,-0.647 0.439,-0.876c0.274,-0.232 0.587,-0.337 0.949,-0.318" style="fill:#fff;fill-rule:nonzero;"/><path d="M80.752,71.02c0.869,-0.001 1.736,-0.009 2.604,-0.027c0.002,0.067 0.004,0.134 0.005,0.199c0.009,0.456 -0.041,0.858 -0.145,1.211c-0.104,0.325 -0.285,0.632 -0.544,0.918c-0.585,0.64 -1.348,0.964 -2.274,0.962c-0.903,-0.003 -1.676,-0.319 -2.304,-0.942c-0.629,-0.626 -0.924,-1.372 -0.901,-2.231c0.024,-0.877 0.363,-1.612 1.003,-2.211c0.642,-0.601 1.403,-0.897 2.3,-0.897c0.481,0.002 0.93,0.095 1.35,0.285c0.401,0.188 0.8,0.495 1.197,0.92c-0.219,0.212 -0.439,0.424 -0.661,0.635c-0.521,-0.654 -1.141,-0.98 -1.871,-0.981c-0.657,-0.001 -1.208,0.214 -1.661,0.649c-0.452,0.427 -0.689,0.965 -0.701,1.618c-0.012,0.673 0.228,1.234 0.734,1.677c0.47,0.412 0.99,0.619 1.55,0.62c0.476,0 0.905,-0.152 1.28,-0.457c0.378,-0.308 0.583,-0.675 0.621,-1.1c-0.527,0.005 -1.054,0.009 -1.581,0.011c0,-0.287 -0.001,-0.573 -0.001,-0.859" style="fill:#fff;fill-rule:nonzero;"/><path d="M88.121,68.767c-0.829,0.047 -1.658,0.086 -2.487,0.118c0.018,0.485 0.036,0.968 0.056,1.452c0.814,-0.031 1.627,-0.069 2.44,-0.114c0.016,0.285 0.033,0.571 0.049,0.856c-0.819,0.046 -1.638,0.085 -2.457,0.116c0.025,0.673 0.051,1.347 0.076,2.02c0.856,-0.033 1.714,-0.074 2.569,-0.123c0.017,0.287 0.033,0.573 0.049,0.858c-1.185,0.068 -2.371,0.119 -3.558,0.156c-0.062,-2.015 -0.123,-4.031 -0.186,-6.047c1.134,-0.034 2.268,-0.084 3.4,-0.149c0.016,0.286 0.032,0.571 0.049,0.857" style="fill:#fff;fill-rule:nonzero;"/><path d="M92.97,68.401c-0.827,0.078 -1.653,0.147 -2.482,0.21c0.038,0.483 0.074,0.965 0.11,1.449c0.812,-0.061 1.624,-0.13 2.435,-0.205c0.028,0.283 0.054,0.568 0.081,0.854c-0.816,0.075 -1.635,0.145 -2.451,0.207c0.05,0.672 0.101,1.344 0.151,2.015c0.855,-0.064 1.71,-0.136 2.563,-0.217c0.027,0.285 0.054,0.569 0.081,0.854c-1.183,0.112 -2.367,0.208 -3.551,0.288c-0.138,-2.011 -0.275,-4.023 -0.411,-6.035c1.132,-0.076 2.262,-0.168 3.393,-0.276c0.026,0.286 0.054,0.57 0.081,0.856" style="fill:#fff;fill-rule:nonzero;"/><path d="M95.506,69.701c0.721,-0.891 1.426,-1.788 2.115,-2.69c0.412,-0.055 0.823,-0.111 1.234,-0.169c-0.794,1.034 -1.608,2.062 -2.444,3.08c1.081,0.983 2.183,1.952 3.309,2.907c-0.432,0.061 -0.863,0.12 -1.296,0.178c-0.886,-0.788 -1.758,-1.585 -2.616,-2.39c-0.059,0.069 -0.117,0.139 -0.174,0.209c0.093,0.829 0.187,1.659 0.281,2.488c-0.324,0.036 -0.646,0.071 -0.969,0.105c-0.212,-2.004 -0.425,-4.01 -0.636,-6.015c0.308,-0.033 0.616,-0.067 0.926,-0.101c0.089,0.798 0.18,1.598 0.27,2.398" style="fill:#fff;fill-rule:nonzero;"/><path d="M100.206,66.643c0.774,1.296 1.565,2.586 2.375,3.867c0.36,-1.476 0.702,-2.953 1.024,-4.43c0.335,-0.061 0.67,-0.122 1.005,-0.185c-0.51,2.301 -1.067,4.602 -1.671,6.9c-1.291,-1.983 -2.539,-3.985 -3.742,-6.002c0.337,-0.048 0.673,-0.099 1.009,-0.15" style="fill:#fff;fill-rule:nonzero;"/><path d="M106.485,65.529c0.401,1.976 0.803,3.952 1.204,5.928c-0.319,0.065 -0.639,0.129 -0.959,0.191c-0.388,-1.978 -0.775,-3.958 -1.162,-5.937c0.306,-0.06 0.612,-0.121 0.917,-0.182" style="fill:#fff;fill-rule:nonzero;"/><path d="M109.056,64.979c0.379,1.688 0.758,3.377 1.136,5.065c0.617,-0.139 1.234,-0.281 1.849,-0.428c0.067,0.278 0.132,0.556 0.2,0.834c-0.938,0.224 -1.877,0.438 -2.817,0.642c-0.427,-1.97 -0.855,-3.941 -1.281,-5.912c0.304,-0.066 0.608,-0.133 0.913,-0.201" style="fill:#fff;fill-rule:nonzero;"/><path d="M112.805,64.078c0.429,1.678 0.859,3.353 1.287,5.03c0.614,-0.157 1.226,-0.319 1.838,-0.484c0.074,0.277 0.15,0.552 0.224,0.828c-0.932,0.252 -1.865,0.495 -2.8,0.726c-0.486,-1.956 -0.972,-3.913 -1.457,-5.87c0.303,-0.075 0.606,-0.152 0.908,-0.23" style="fill:#fff;fill-rule:nonzero;"/><path d="M119.179,63.171c-0.801,0.248 -1.604,0.487 -2.409,0.719c0.134,0.466 0.268,0.931 0.402,1.396c0.79,-0.226 1.578,-0.461 2.365,-0.703c0.085,0.273 0.168,0.546 0.253,0.819c-0.792,0.244 -1.585,0.482 -2.381,0.71c0.187,0.647 0.373,1.295 0.559,1.942c0.833,-0.24 1.662,-0.488 2.489,-0.743c0.084,0.274 0.169,0.547 0.254,0.821c-1.146,0.354 -2.297,0.692 -3.451,1.015c-0.543,-1.941 -1.087,-3.883 -1.631,-5.825c1.103,-0.308 2.201,-0.631 3.297,-0.971c0.084,0.273 0.169,0.547 0.253,0.82" style="fill:#fff;fill-rule:nonzero;"/><path d="M121.984,67.27c-0.043,-0.14 -0.027,-0.276 0.048,-0.415c0.077,-0.136 0.192,-0.23 0.343,-0.279c0.152,-0.049 0.299,-0.041 0.442,0.024c0.142,0.067 0.236,0.169 0.284,0.31c0.048,0.145 0.033,0.286 -0.043,0.424c-0.075,0.134 -0.19,0.226 -0.346,0.277c-0.159,0.052 -0.307,0.045 -0.447,-0.018c-0.139,-0.067 -0.233,-0.173 -0.281,-0.323" style="fill:#fff;fill-rule:nonzero;"/><path d="M123.814,60.734c0.671,1.902 1.342,3.804 2.013,5.705c-0.311,0.11 -0.621,0.219 -0.932,0.325c-0.658,-1.906 -1.314,-3.812 -1.973,-5.719c0.298,-0.102 0.595,-0.206 0.892,-0.311" style="fill:#fff;fill-rule:nonzero;"/><path d="M127.348,60.348c0.62,1.616 1.239,3.232 1.858,4.848c-0.309,0.118 -0.617,0.235 -0.925,0.35c-0.608,-1.619 -1.215,-3.241 -1.823,-4.861c-0.452,0.17 -0.905,0.336 -1.359,0.502c-0.098,-0.269 -0.195,-0.538 -0.293,-0.808c1.197,-0.432 2.389,-0.885 3.574,-1.354c0.107,0.266 0.212,0.532 0.317,0.798c-0.449,0.178 -0.898,0.352 -1.349,0.525" style="fill:#fff;fill-rule:nonzero;"/><path d="M59.343,51.569c-1.69,1.058 -2.717,1.835 -2.717,1.835c0,0 -1.103,0.811 -0.295,1.221c0.782,0.397 2.49,0.844 3.342,0.37c0.38,-0.21 0.854,-0.536 1.402,-0.93c-0.837,-0.721 -1.373,-1.593 -1.732,-2.496" style="fill:#fff;fill-rule:nonzero;"/><path d="M103.118,53.575c0,0 -0.867,-0.666 -2.318,-1.606c-0.399,0.889 -0.987,1.737 -1.879,2.42c0.434,0.312 0.82,0.577 1.137,0.754c0.849,0.48 2.562,0.046 3.345,-0.345c0.812,-0.403 -0.285,-1.223 -0.285,-1.223" style="fill:#fff;fill-rule:nonzero;"/><path d="M99.874,45.025c-0.537,-0.003 -0.971,-0.194 -0.97,-0.428c0.001,-0.233 0.436,-0.42 0.974,-0.419c0.537,0.003 0.971,0.193 0.969,0.427c0,0.233 -0.436,0.421 -0.973,0.42M98.782,48.097c-0.002,0.556 -0.277,2.944 -1.143,4.259c-0.231,0.342 -1.328,2.155 -5.706,2.139c-0.745,-0.002 -3.682,-0.117 -6.243,-2.585c-0.292,-0.313 -1.68,-1.879 -1.835,-4.925c-0.013,-1.542 1.111,-2.456 1.111,-2.456c0,0 1.237,-1.775 6.418,-1.773c7.532,0.256 7.405,3.371 7.398,5.341M74.529,51.868c-2.578,2.449 -5.517,2.542 -6.262,2.54c-4.379,-0.016 -5.462,-1.837 -5.69,-2.182c-0.855,-1.322 -1.114,-3.71 -1.112,-4.266c0.007,-1.97 -0.095,-5.086 7.438,-5.287c5.181,0.037 6.405,1.82 6.405,1.82c0,0 1.117,0.922 1.092,2.464c-0.175,3.046 -1.577,4.601 -1.871,4.911M60.397,44.879c-0.538,-0.003 -0.974,-0.194 -0.972,-0.427c0.001,-0.234 0.437,-0.421 0.975,-0.419c0.536,0.003 0.972,0.192 0.971,0.426c-0.001,0.233 -0.438,0.422 -0.974,0.42M101.035,42.983c0,0 -3.899,-1.249 -9.359,-1.35c-3.743,-0.013 -6.034,0.979 -6.78,1.21c-1.934,0.595 -3.719,0.532 -4.756,0.528c-1.036,-0.004 -2.821,0.048 -4.749,-0.563c-0.745,-0.236 -3.03,-1.246 -6.771,-1.26c-5.461,0.061 -9.369,1.28 -9.369,1.28c0,0 -0.506,0.12 -0.507,0.565c-0.002,0.526 0.012,2.124 0.012,2.124c0,0 0.523,0.621 0.702,1.459c0.497,2.326 0.125,7.935 7.372,8.42c4.182,0.279 9.258,-0.479 11.212,-7.381c0.322,-1.142 0.959,-1.841 1.362,-1.978c0.427,-0.146 0.532,-0.169 0.727,-0.169c0.197,0.001 0.301,0.025 0.728,0.174c0.401,0.14 1.032,0.844 1.347,1.989c1.903,6.916 6.974,7.711 11.158,7.463c7.249,-0.432 6.919,-6.044 7.433,-8.366c0.185,-0.836 0.713,-1.454 0.713,-1.454c0,0 0.027,-1.596 0.029,-2.123c0.001,-0.444 -0.504,-0.568 -0.504,-0.568" style="fill:#fff;fill-rule:nonzero;"/><path d="M147.711,47.378l-38.702,-0.144c-0.261,-0.001 -0.471,-0.213 -0.47,-0.473c0,-0.262 0.213,-0.473 0.474,-0.471l38.702,0.143c0.261,0 0.471,0.212 0.469,0.474c-0.001,0.26 -0.212,0.471 -0.473,0.471" style="fill:#fff;fill-rule:nonzero;"/><path d="M145.258,51.141l-38.703,-0.143c-0.26,-0.001 -0.471,-0.213 -0.47,-0.474c0.001,-0.261 0.214,-0.471 0.474,-0.469l38.702,0.142c0.26,0.001 0.471,0.213 0.47,0.473c-0.001,0.262 -0.213,0.471 -0.473,0.471" style="fill:#fff;fill-rule:nonzero;"/><path d="M53.745,50.803l-38.702,-0.144c-0.261,0 -0.472,-0.212 -0.47,-0.473c0,-0.261 0.212,-0.471 0.473,-0.471l38.702,0.144c0.261,0.001 0.471,0.212 0.47,0.473c-0.001,0.26 -0.212,0.472 -0.473,0.471" style="fill:#fff;fill-rule:nonzero;"/><path d="M136.478,12.284c-15.041,-7.843 -35.044,-12.206 -56.323,-12.283l-0.574,-0.001c-14.985,0 -29.327,2.142 -41.745,6.128c0.926,0.168 1.776,0.485 2.527,0.943c9.621,-2.883 20.549,-4.739 32.203,-5.274c1.11,-0.82 2.434,-1.185 3.542,-1.226c0.131,-0.005 0.257,-0.007 0.38,-0.007c1.719,0 2.782,0.466 3.448,1.069l0.213,0.001c10.81,0.04 21.111,1.204 30.481,3.274c0.813,-0.381 1.63,-0.579 2.442,-0.579c0.393,0 0.78,0.046 1.152,0.141c1.466,0.371 2.512,1.08 3.108,2.108c0.001,0.003 0.002,0.006 0.004,0.009c1.156,0.326 2.294,0.664 3.414,1.018c0.707,-0.267 1.407,-0.41 2.092,-0.41c0.532,0 1.05,0.084 1.537,0.248c1.44,0.488 2.431,1.281 2.945,2.354c0.024,0.05 0.041,0.101 0.063,0.152c18.844,7.398 31.012,19.039 30.963,32.07c-0.082,21.954 -35.043,39.814 -77.931,39.814l-0.569,-0.001c-21.018,-0.078 -40.749,-4.373 -55.559,-12.094c-14.641,-7.633 -22.681,-17.68 -22.642,-28.291c0.04,-10.626 8.252,-20.294 21.579,-27.441c0.59,-1 1.332,-2.018 2.272,-2.992c-0.653,0.315 -1.31,0.628 -1.946,0.956c-15.148,7.809 -23.512,18.276 -23.554,29.471c-0.043,11.249 8.312,21.811 23.522,29.741c15.04,7.843 35.041,12.205 56.322,12.283l0.575,0.001c21.159,0 41.056,-4.251 56.026,-11.969c15.148,-7.809 23.514,-18.275 23.555,-29.471c0.043,-11.249 -8.312,-21.811 -23.522,-29.742" style="fill:#fff;fill-rule:nonzero;"/><path d="M33.27,10.141c-7.461,2.911 -7.663,13.566 -4.323,19.888c0.366,0.729 0.765,1.44 1.196,2.031c7.69,-6.012 9.658,-14.503 8.077,-19.205c-0.819,-2.335 -2.641,-3.602 -4.95,-2.714M44.477,27.473c-0.007,0.566 0.624,3.563 1.171,8.128c0.652,5.554 0.038,9.503 -4.439,11.526c-2.976,1.376 -5.414,0.255 -6.432,-1.663c-0.984,-1.847 -0.471,-4.528 2.452,-5.962c0.521,0.772 1.037,1.546 1.55,2.323c-1.256,0.786 -1.475,2.051 -1.049,2.923c0.469,0.958 1.616,1.508 3.014,0.867c3.704,-1.651 2.238,-5.93 1.275,-12.808c-0.697,1.583 -2.074,3.03 -4.634,4.178c-3.462,1.565 -6.62,0.6 -9.199,-1.654c-0.509,0.309 -1.018,0.622 -1.574,0.932c-8.049,4.561 -13.885,3.82 -16.405,0.451c-2.302,-3.059 -1.227,-8.621 4.894,-12.332c1.253,-0.753 2.526,-1.196 3.783,-1.361c-0.093,0.854 -0.177,1.706 -0.253,2.558c-1.092,0.158 -2.109,0.467 -3.26,1.169c-3.596,2.206 -4.339,6.164 -2.661,8.537c1.892,2.683 6.312,3.478 13.139,-0.392c0.424,-0.236 0.846,-0.469 1.223,-0.706c-0.654,-0.787 -1.287,-1.692 -1.826,-2.682c-3.962,-6.829 -3.136,-18.664 7.635,-22.896c5.084,-1.932 8.361,-0.087 9.382,3.218c1.662,5.644 -2.048,14.883 -11.072,21.532c1.869,2.051 4.076,2.874 6.535,1.792c5.06,-2.156 3.264,-7.299 3.995,-10.931c1.147,-0.022 2.288,-0.027 3.423,-0.014c-0.237,1.09 -0.459,2.177 -0.667,3.267" style="fill:#fff;fill-rule:nonzero;"/><path d="M50.18,24.279c2.543,-1.913 3.354,-4.305 3.082,-5.44c-0.11,-0.457 -0.427,-0.704 -0.828,-0.604c-1.662,0.409 -2.517,3.414 -2.254,6.044M58.077,22.256c0.233,-0.048 1.133,0.027 1.169,0.213c-1.146,4.422 -2.209,7.96 -5.689,8.879c-3.08,0.839 -5.104,-1.113 -6.007,-3.929c-1.338,-4.039 0.096,-10.005 4.742,-11.152c2.05,-0.497 3.317,0.396 3.618,1.803c0.457,2.194 -1.256,5.576 -5.52,7.387l0.127,0.453c0.519,1.811 1.55,3.072 3.226,2.634c2.156,-0.56 3.503,-2.851 4.334,-6.288" style="fill:#fff;fill-rule:nonzero;"/><path d="M61.198,21.753c2.704,-1.65 3.741,-3.95 3.583,-5.106c-0.065,-0.467 -0.354,-0.742 -0.763,-0.684c-1.688,0.244 -2.826,3.147 -2.82,5.79M69.222,20.522c0.235,-0.025 1.122,0.139 1.139,0.327c-1.57,4.287 -2.968,7.702 -6.506,8.273c-3.133,0.527 -4.947,-1.617 -5.568,-4.508c-0.928,-4.15 1.065,-9.941 5.783,-10.621c2.081,-0.294 3.252,0.721 3.411,2.15c0.239,2.228 -1.79,5.426 -6.191,6.803c0.029,0.154 0.056,0.31 0.083,0.464c0.337,1.853 1.233,3.211 2.94,2.94c2.19,-0.343 3.749,-2.489 4.909,-5.828" style="fill:#fff;fill-rule:nonzero;"/><path d="M76.923,4.914c-0.009,-0.283 -0.193,-0.433 -0.416,-0.424c-0.702,0.027 -1.278,1.365 -2.516,6.647c1.123,-1.764 2.42,-4.105 2.896,-5.972c-0.002,-0.092 0.038,-0.188 0.036,-0.251M76.16,15.139c-0.979,0.043 -2.309,1.177 -3.771,4.435c-0.042,0.327 -0.083,0.655 -0.122,0.983c0.469,-0.038 0.906,0.025 1.265,0.096c1.631,-1.246 3.382,-3.725 3.348,-4.915c-0.012,-0.313 -0.144,-0.56 -0.515,-0.607c-0.083,0.003 -0.124,0.005 -0.205,0.008M68.583,28.134c-0.068,-0.275 -0.104,-0.555 -0.137,-0.836c-0.306,-2.459 0.59,-5.148 0.597,-5.148c0.607,-6.753 1.83,-14.517 3.487,-17.548c0.754,-1.404 2.315,-2.089 3.675,-2.139c2.271,-0.083 3.143,0.704 3.158,1.891c0,2.53 -3.634,6.9 -6.004,9.461c-0.165,0.88 -0.324,1.761 -0.479,2.641c1.145,-2.187 2.76,-3.568 4.603,-3.625c1.716,-0.051 2.48,0.829 2.488,2.08c0.01,2.074 -2.004,5.112 -4.898,6.621c1.278,1.378 1.136,3.612 2.192,3.57c0.905,-0.033 2.443,-1.613 4.178,-5.214c0.236,-0.002 1.1,0.257 1.097,0.446c-1.779,3.559 -3.443,7.199 -5.992,7.308c-2.957,0.148 -3.183,-3.418 -3.944,-5.288c-0.193,0.016 -0.387,0.031 -0.579,0.046c-0.199,1.81 -0.378,3.651 -0.475,5.422c-0.99,0.091 -1.979,0.195 -2.967,0.312" style="fill:#fff;fill-rule:nonzero;"/><path d="M90.464,12.678c-1.312,-0.099 -2.565,2.848 -2.71,5.666c-0.04,0.688 0.003,1.35 0.085,1.983c1.869,-3.062 2.966,-6.049 3.043,-7.083c0.033,-0.405 -0.126,-0.543 -0.418,-0.566M86.942,21.754c-0.449,-1.09 -0.672,-2.417 -0.611,-3.795c0.123,-3.346 1.923,-6.837 4.746,-6.618c1.698,0.135 2.82,1.267 2.632,3.01c-0.293,2.777 -2.182,5.945 -4.371,8.679c0.297,0.148 0.633,0.267 1.053,0.302c1.715,0.142 2.831,-1.027 3.858,-2.71c0.235,0.025 1.066,0.378 1.042,0.565c-1.199,1.972 -2.748,3.263 -5.202,3.064c-0.531,-0.043 -1.016,-0.171 -1.42,-0.419c-1.208,1.46 -2.499,2.712 -3.706,3.611c-0.662,-0.022 -1.325,-0.039 -1.986,-0.049c-0.178,-2.605 -0.38,-4.958 -0.476,-7.061c-0.233,-0.035 -1.058,-0.227 -1.058,-0.445c0.302,-0.627 0.61,-1.251 0.922,-1.877c-0.035,-0.594 -0.03,-1.191 -0.025,-1.723c0.011,-1.192 0.06,-2.258 0.238,-3.195c0.987,0.01 1.972,0.033 2.957,0.067c0.04,0.126 0.073,0.317 0.067,0.536c-0.03,0.846 -0.398,1.678 -1.249,3.286c0.075,1.758 0.209,4.3 0.485,7.508c0.746,-0.853 1.474,-1.795 2.104,-2.736" style="fill:#fff;fill-rule:nonzero;"/><path d="M97.917,10.78c0.146,-1.119 1.454,-2.313 3.365,-2.011c1.43,0.229 1.903,1.082 1.749,1.945c-0.199,1.112 -1.515,2.208 -3.353,1.93c-1.34,-0.2 -1.872,-1.024 -1.761,-1.864M100.48,14.608c-2.219,4.599 -3.806,8.056 -4.156,10.603c-0.125,0.901 0.264,1.111 0.599,1.16c0.971,0.141 2.432,-1.413 4.778,-4.655c0.194,0.034 1.048,0.418 1.011,0.603c-0.002,0.009 -0.004,0.02 -0.006,0.031c-2.38,3.193 -4.233,6.542 -7.205,6.134c-1.96,-0.258 -2.453,-1.873 -2.224,-4.028c0.349,-3.465 2.666,-8.217 3.689,-10.356c1.172,0.152 2.344,0.322 3.514,0.508" style="fill:#fff;fill-rule:nonzero;"/><path d="M113.536,8.455c-1.21,-0.318 -5.342,5.668 -7.666,11.143c2.535,-2.391 6.884,-6.691 7.927,-10.365c0.11,-0.424 -0.042,-0.722 -0.261,-0.778M110.427,23.646c0.193,0.05 0.854,0.488 0.812,0.639l-0.009,0.031c-3.556,4.238 -5.683,6.143 -8.027,5.645c-2.154,-0.444 -2.7,-2.403 -2.134,-5.618c0.406,-2.253 1.391,-5.136 2.878,-8.491c3.304,-7.386 6.959,-10.229 9.533,-9.579c2.31,0.585 2.616,2.055 2.189,3.591c-0.499,1.78 -1.928,3.698 -2.587,4.53c-2.768,3.507 -6.108,5.877 -7.977,7.062c-0.471,1.277 -0.833,2.451 -1.037,3.434c-0.425,2.057 -0.006,2.815 0.838,3.001c1.177,0.261 2.989,-1.311 5.521,-4.245" style="fill:#fff;fill-rule:nonzero;"/><path d="M123.298,11.361c-1.187,-0.415 -5.786,5.227 -8.535,10.504c2.723,-2.184 7.409,-6.126 8.738,-9.706c0.144,-0.415 0.011,-0.725 -0.203,-0.798M119.015,26.266c0.189,0.063 0.816,0.552 0.764,0.702c-0.01,0.029 -0.012,0.029 -0.011,0.029c-3.889,3.943 -6.167,5.672 -8.475,4.99c-2.121,-0.614 -2.516,-2.611 -1.701,-5.773c0.58,-2.213 1.788,-5.01 3.535,-8.238c3.876,-7.103 7.754,-9.651 10.284,-8.795c2.267,0.768 2.46,2.259 1.914,3.757c-0.635,1.735 -2.216,3.532 -2.94,4.31c-3.042,3.277 -6.57,5.374 -8.53,6.408c-0.571,1.238 -1.024,2.379 -1.304,3.342c-0.584,2.019 -0.222,2.807 0.606,3.06c1.161,0.353 3.095,-1.069 5.858,-3.792" style="fill:#fff;fill-rule:nonzero;"/><path d="M121.978,27.445c3.203,-0.016 5.301,-1.444 5.756,-2.519c0.185,-0.432 0.075,-0.819 -0.313,-0.981c-1.516,-0.635 -3.898,1.201 -5.443,3.5M145.323,29.313c5.871,3.622 6.56,8.14 4.607,10.748c-2.315,3.086 -7.733,4.04 -13.547,0.597c-3.024,-1.773 -4.689,-4.024 -5.442,-6.151c0.786,-0.17 1.58,-0.331 2.376,-0.482c0.679,2.332 1.848,3.74 4.052,5.031c4.393,2.604 8.184,1.624 9.83,-0.73c1.467,-2.096 1.024,-5.395 -2.69,-7.674c-9.508,-5.452 -15.743,8.024 -24.019,4.487c-2.996,-1.171 -3.458,-3.943 -2.508,-6.742c1.335,-4.04 6.035,-7.983 10.503,-6.114c1.966,0.83 2.467,2.311 1.869,3.62c-0.951,2.063 -4.423,3.721 -8.993,2.615c-0.252,0.441 -0.455,0.868 -0.608,1.278c-0.693,1.853 -0.64,3.538 0.933,4.166c3.893,1.75 12.008,-11.396 23.637,-4.649" style="fill:#fff;fill-rule:nonzero;"/><path d="M42.483,9.108c8.473,-2.388 17.967,-3.983 28.067,-4.584c0.128,-0.302 0.261,-0.58 0.398,-0.837c-10.301,0.574 -20.134,2.177 -29.019,4.706c0.198,0.224 0.383,0.462 0.554,0.715" style="fill:#fff;fill-rule:nonzero;"/><path d="M80.95,3.453c0.055,0.273 0.071,0.509 0.074,0.672c0,0.047 -0.01,0.098 -0.012,0.146c9.33,0.086 18.382,1.007 26.821,2.684c0.246,-0.247 0.492,-0.473 0.74,-0.686c-8.676,-1.766 -18.005,-2.731 -27.623,-2.816" style="fill:#fff;fill-rule:nonzero;"/><path d="M13.589,22.951c0.532,-0.31 1.117,-0.574 1.712,-0.801c1.886,-1.528 3.987,-2.983 6.283,-4.356c0.078,-0.263 0.159,-0.526 0.249,-0.786c0.05,-0.143 0.107,-0.291 0.163,-0.438c-4.094,2.359 -7.552,4.936 -10.331,7.678c0.592,-0.463 1.234,-0.896 1.924,-1.297" style="fill:#fff;fill-rule:nonzero;"/><path d="M117.845,8.538c0.003,0.27 -0.013,0.547 -0.056,0.833c0.018,0.006 0.036,0.01 0.054,0.015c0.266,-0.225 0.532,-0.428 0.798,-0.62c-0.264,-0.079 -0.531,-0.151 -0.796,-0.228" style="fill:#fff;fill-rule:nonzero;"/><path d="M134.099,14.778c-2.042,-1.026 -4.19,-1.98 -6.414,-2.874c-0.022,0.266 -0.072,0.541 -0.142,0.822c2.145,0.868 4.216,1.792 6.189,2.783c14.203,7.135 22.004,16.547 21.967,26.503c-0.075,20.512 -33.839,37.199 -75.263,37.199l-0.574,-0.001c-20.268,-0.075 -39.302,-4.071 -53.594,-11.251c-14.204,-7.136 -22.005,-16.548 -21.968,-26.505c0.013,-3.286 0.893,-6.473 2.528,-9.51c0.018,-0.12 0.029,-0.241 0.052,-0.362c0.202,-1.052 0.575,-2.084 1.107,-3.073c-2.944,4.09 -4.487,8.454 -4.503,12.942c-0.039,10.283 7.923,19.956 22.417,27.238c14.403,7.236 33.566,11.262 53.958,11.338l0.577,0.001c20.271,0 39.325,-3.919 53.653,-11.035c14.424,-7.164 22.39,-16.745 22.428,-26.978c0.037,-10.282 -7.924,-19.955 -22.418,-27.237" style="fill:#fff;fill-rule:nonzero;"/><path d="M60.071,7.584l-0.055,-0.405c-0.36,0.048 -0.72,0.098 -1.078,0.147l0.056,0.406c0.358,-0.052 0.718,-0.101 1.077,-0.148" style="fill:#fff;fill-rule:nonzero;"/><path d="M6.417,42.668l-0.407,0.027c0.023,0.366 0.06,0.729 0.105,1.091l0.405,-0.052c-0.044,-0.354 -0.079,-0.709 -0.103,-1.066" style="fill:#fff;fill-rule:nonzero;"/><path d="M6.688,38.265l-0.4,-0.076c-0.07,0.357 -0.127,0.722 -0.174,1.083l0.406,0.051c0.045,-0.354 0.101,-0.707 0.168,-1.058" style="fill:#fff;fill-rule:nonzero;"/><path d="M7.214,36.186l-0.389,-0.123c-0.111,0.35 -0.211,0.702 -0.3,1.055l0.395,0.1c0.088,-0.346 0.185,-0.69 0.294,-1.032" style="fill:#fff;fill-rule:nonzero;"/><path d="M6.688,44.791l-0.4,0.077c0.069,0.359 0.147,0.715 0.237,1.072l0.396,-0.1c-0.088,-0.349 -0.165,-0.698 -0.233,-1.049" style="fill:#fff;fill-rule:nonzero;"/><path d="M8.579,51.003c0.179,0.316 0.365,0.63 0.56,0.942l0.346,-0.216c-0.191,-0.308 -0.374,-0.616 -0.549,-0.926l-0.357,0.2Z" style="fill:#fff;fill-rule:nonzero;"/><path d="M6.825,46.995c0.109,0.346 0.229,0.692 0.359,1.036l0.382,-0.145c-0.126,-0.336 -0.245,-0.674 -0.352,-1.014l-0.389,0.123Z" style="fill:#fff;fill-rule:nonzero;"/><path d="M7.599,49.046c0.146,0.332 0.302,0.662 0.467,0.991l0.364,-0.183c-0.161,-0.323 -0.315,-0.648 -0.457,-0.974l-0.374,0.166Z" style="fill:#fff;fill-rule:nonzero;"/><path d="M53.636,8.593l-0.072,-0.402c-0.358,0.065 -0.716,0.132 -1.071,0.2l0.077,0.401c0.354,-0.068 0.71,-0.134 1.066,-0.199" style="fill:#fff;fill-rule:nonzero;"/><path d="M55.776,8.222l-0.066,-0.403c-0.359,0.059 -0.716,0.12 -1.074,0.182l0.07,0.402c0.355,-0.062 0.712,-0.121 1.07,-0.181" style="fill:#fff;fill-rule:nonzero;"/><path d="M57.921,7.886l-0.06,-0.404c-0.361,0.054 -0.719,0.108 -1.077,0.165l0.063,0.403c0.356,-0.056 0.715,-0.111 1.074,-0.164" style="fill:#fff;fill-rule:nonzero;"/><path d="M51.504,8.999l-0.08,-0.4c-0.356,0.072 -0.713,0.144 -1.066,0.217l0.082,0.4c0.354,-0.073 0.709,-0.145 1.064,-0.217" style="fill:#fff;fill-rule:nonzero;"/><path d="M45.156,10.442l-0.101,-0.395c-0.353,0.09 -0.705,0.181 -1.054,0.275l0.105,0.395c0.348,-0.092 0.698,-0.185 1.05,-0.275" style="fill:#fff;fill-rule:nonzero;"/><path d="M34.573,69.897c0.338,0.129 0.678,0.255 1.021,0.38l0.14,-0.383c-0.341,-0.125 -0.68,-0.251 -1.016,-0.379l-0.145,0.382Z" style="fill:#fff;fill-rule:nonzero;"/><path d="M49.379,9.443l-0.086,-0.399c-0.358,0.076 -0.711,0.156 -1.063,0.236l0.09,0.398c0.351,-0.08 0.704,-0.159 1.059,-0.235" style="fill:#fff;fill-rule:nonzero;"/><path d="M6.379,41.462c0.002,-0.359 0.015,-0.717 0.038,-1.073l-0.407,-0.027c-0.024,0.364 -0.037,0.731 -0.04,1.099l0.002,0.135l0.408,0l-0.001,-0.134Z" style="fill:#fff;fill-rule:nonzero;"/><path d="M24.663,65.382c0.317,0.173 0.637,0.346 0.96,0.516l0.191,-0.361c-0.322,-0.17 -0.64,-0.341 -0.955,-0.513l-0.196,0.358Z" style="fill:#fff;fill-rule:nonzero;"/><path d="M22.767,64.305c0.311,0.183 0.625,0.366 0.943,0.547l0.202,-0.356c-0.316,-0.179 -0.629,-0.36 -0.938,-0.543l-0.207,0.352Z" style="fill:#fff;fill-rule:nonzero;"/><path d="M26.592,66.398c0.323,0.163 0.648,0.324 0.977,0.485l0.178,-0.367c-0.326,-0.16 -0.65,-0.32 -0.971,-0.483l-0.184,0.365Z" style="fill:#fff;fill-rule:nonzero;"/><path d="M28.552,67.354c0.327,0.153 0.656,0.305 0.989,0.456l0.17,-0.372c-0.332,-0.15 -0.66,-0.301 -0.985,-0.454l-0.174,0.37Z" style="fill:#fff;fill-rule:nonzero;"/><path d="M20.91,63.159c0.303,0.196 0.611,0.39 0.923,0.582l0.215,-0.348c-0.309,-0.19 -0.616,-0.382 -0.918,-0.577l-0.22,0.343Z" style="fill:#fff;fill-rule:nonzero;"/><path d="M32.545,69.1c0.335,0.136 0.671,0.272 1.011,0.404l0.15,-0.379c-0.338,-0.134 -0.674,-0.267 -1.007,-0.403l-0.154,0.378Z" style="fill:#fff;fill-rule:nonzero;"/><path d="M30.537,68.253c0.332,0.145 0.664,0.289 1.002,0.43l0.158,-0.376c-0.335,-0.14 -0.667,-0.284 -0.996,-0.428l-0.164,0.374Z" style="fill:#fff;fill-rule:nonzero;"/><path d="M11.047,54.614c0.227,0.282 0.461,0.561 0.702,0.838l0.308,-0.267c-0.237,-0.275 -0.468,-0.549 -0.692,-0.828l-0.318,0.257Z" style="fill:#fff;fill-rule:nonzero;"/><path d="M19.098,61.944c0.295,0.207 0.595,0.413 0.899,0.618l0.228,-0.339c-0.302,-0.203 -0.6,-0.408 -0.893,-0.613l-0.234,0.334Z" style="fill:#fff;fill-rule:nonzero;"/><path d="M12.481,56.266c0.244,0.263 0.497,0.527 0.756,0.788l0.29,-0.287c-0.255,-0.258 -0.505,-0.518 -0.748,-0.78l-0.298,0.279Z" style="fill:#fff;fill-rule:nonzero;"/><path d="M9.739,52.86c0.204,0.299 0.416,0.596 0.637,0.89l0.327,-0.244c-0.217,-0.291 -0.427,-0.583 -0.628,-0.877l-0.336,0.231Z" style="fill:#fff;fill-rule:nonzero;"/><path d="M14.017,57.819c0.262,0.249 0.529,0.496 0.802,0.741l0.273,-0.304c-0.271,-0.243 -0.535,-0.487 -0.794,-0.733l-0.281,0.296Z" style="fill:#fff;fill-rule:nonzero;"/><path d="M17.338,60.653c0.286,0.219 0.577,0.438 0.872,0.655l0.242,-0.329c-0.292,-0.216 -0.582,-0.432 -0.864,-0.649l-0.25,0.323Z" style="fill:#fff;fill-rule:nonzero;"/><path d="M15.64,59.279c0.276,0.234 0.555,0.466 0.84,0.697l0.257,-0.318c-0.282,-0.229 -0.56,-0.458 -0.832,-0.69l-0.265,0.311Z" style="fill:#fff;fill-rule:nonzero;"/><path d="M47.263,9.923l-0.094,-0.397c-0.355,0.084 -0.708,0.169 -1.059,0.255l0.097,0.397c0.351,-0.087 0.702,-0.172 1.056,-0.255" style="fill:#fff;fill-rule:nonzero;"/><path d="M138.223,19.762c-0.306,-0.189 -0.618,-0.377 -0.933,-0.565l-0.208,0.351c0.313,0.187 0.623,0.374 0.928,0.562l0.213,-0.348Z" style="fill:#fff;fill-rule:nonzero;"/><path d="M141.844,22.198c-0.292,-0.213 -0.586,-0.425 -0.886,-0.637l-0.236,0.334c0.298,0.21 0.591,0.42 0.88,0.633l0.242,-0.33Z" style="fill:#fff;fill-rule:nonzero;"/><path d="M136.347,18.65c-0.313,-0.179 -0.631,-0.357 -0.951,-0.532l-0.196,0.357c0.319,0.175 0.633,0.351 0.945,0.529l0.202,-0.354Z" style="fill:#fff;fill-rule:nonzero;"/><path d="M140.058,20.943c-0.3,-0.201 -0.603,-0.401 -0.912,-0.599l-0.221,0.344c0.306,0.196 0.607,0.394 0.905,0.595l0.228,-0.34Z" style="fill:#fff;fill-rule:nonzero;"/><path d="M130.52,15.684c-0.329,-0.148 -0.66,-0.296 -0.995,-0.443l-0.164,0.374c0.333,0.146 0.662,0.293 0.99,0.442l0.169,-0.373Z" style="fill:#fff;fill-rule:nonzero;"/><path d="M132.492,16.614c-0.325,-0.159 -0.653,-0.316 -0.983,-0.471l-0.174,0.369c0.329,0.155 0.654,0.312 0.977,0.469l0.18,-0.367Z" style="fill:#fff;fill-rule:nonzero;"/><path d="M134.436,17.601c-0.32,-0.168 -0.642,-0.335 -0.969,-0.501l-0.185,0.365c0.325,0.165 0.646,0.331 0.964,0.498l0.19,-0.362Z" style="fill:#fff;fill-rule:nonzero;"/><path d="M153.621,41.939l0.409,0c-0.002,-0.368 -0.012,-0.734 -0.035,-1.099l-0.408,0.025c0.023,0.357 0.033,0.715 0.034,1.074" style="fill:#fff;fill-rule:nonzero;"/><path d="M153.892,39.748c-0.044,-0.363 -0.101,-0.723 -0.168,-1.082l-0.401,0.075c0.065,0.351 0.12,0.704 0.164,1.058l0.405,-0.051Z" style="fill:#fff;fill-rule:nonzero;"/><path d="M148.295,28.066c-0.236,-0.273 -0.479,-0.545 -0.729,-0.815l-0.3,0.278c0.247,0.267 0.488,0.535 0.72,0.804l0.309,-0.267Z" style="fill:#fff;fill-rule:nonzero;"/><path d="M127.363,14.77c0.337,0.137 0.67,0.276 1.003,0.417l0.158,-0.377c-0.334,-0.141 -0.669,-0.28 -1.007,-0.418l-0.154,0.378Z" style="fill:#fff;fill-rule:nonzero;"/><path d="M145.231,24.952c-0.268,-0.241 -0.542,-0.482 -0.821,-0.72l-0.265,0.31c0.275,0.237 0.547,0.474 0.813,0.713l0.273,-0.303Z" style="fill:#fff;fill-rule:nonzero;"/><path d="M143.571,23.533c-0.281,-0.226 -0.566,-0.453 -0.857,-0.677l-0.248,0.323c0.287,0.223 0.57,0.447 0.847,0.672l0.258,-0.318Z" style="fill:#fff;fill-rule:nonzero;"/><path d="M62.224,7.316l-0.046,-0.406c-0.361,0.042 -0.722,0.085 -1.081,0.13l0.05,0.406c0.358,-0.045 0.718,-0.088 1.077,-0.13" style="fill:#fff;fill-rule:nonzero;"/><path d="M146.811,26.461c-0.253,-0.256 -0.513,-0.511 -0.779,-0.766l-0.282,0.296c0.263,0.251 0.52,0.503 0.771,0.757l0.29,-0.287Z" style="fill:#fff;fill-rule:nonzero;"/><path d="M80.641,6.071l-0.002,0.259c0.364,0.002 0.726,0.005 1.086,0.011l0.005,-0.409c-0.345,-0.006 -0.692,-0.008 -1.04,-0.011c-0.016,0.051 -0.031,0.099 -0.049,0.15" style="fill:#fff;fill-rule:nonzero;"/><path d="M86.083,6.054c-0.361,-0.014 -0.724,-0.028 -1.088,-0.043l-0.014,0.409c0.363,0.013 0.725,0.027 1.085,0.042l0.017,-0.408Z" style="fill:#fff;fill-rule:nonzero;"/><path d="M83.907,5.978c-0.361,-0.01 -0.724,-0.02 -1.088,-0.027l-0.008,0.409c0.362,0.007 0.724,0.016 1.085,0.027l0.011,-0.409Z" style="fill:#fff;fill-rule:nonzero;"/><path d="M69.807,6.634c0.042,-0.14 0.083,-0.281 0.127,-0.417c-0.057,0.005 -0.112,0.007 -0.168,0.011l0.026,0.407c0.005,0 0.01,-0.001 0.015,-0.001" style="fill:#fff;fill-rule:nonzero;"/><path d="M68.709,6.708l-0.029,-0.407c-0.363,0.026 -0.724,0.053 -1.086,0.082l0.032,0.407c0.36,-0.029 0.721,-0.056 1.083,-0.082" style="fill:#fff;fill-rule:nonzero;"/><path d="M64.383,7.082l-0.041,-0.407c-0.362,0.036 -0.723,0.075 -1.083,0.113l0.044,0.407c0.359,-0.039 0.72,-0.077 1.08,-0.113" style="fill:#fff;fill-rule:nonzero;"/><path d="M66.544,6.878l-0.035,-0.406c-0.361,0.031 -0.723,0.063 -1.084,0.097l0.039,0.407c0.359,-0.034 0.72,-0.067 1.08,-0.098" style="fill:#fff;fill-rule:nonzero;"/><path d="M88.258,6.162c-0.361,-0.022 -0.724,-0.041 -1.087,-0.058l-0.02,0.408c0.362,0.018 0.723,0.037 1.084,0.057l0.023,-0.407Z" style="fill:#fff;fill-rule:nonzero;"/><path d="M96.932,6.905c-0.359,-0.041 -0.72,-0.082 -1.081,-0.121l-0.044,0.406c0.361,0.039 0.72,0.08 1.079,0.122l0.046,-0.407Z" style="fill:#fff;fill-rule:nonzero;"/><path d="M105.548,8.177c-0.357,-0.064 -0.714,-0.126 -1.072,-0.189l-0.07,0.403c0.358,0.061 0.714,0.125 1.069,0.188l0.073,-0.402Z" style="fill:#fff;fill-rule:nonzero;"/><path d="M94.769,6.671c-0.36,-0.036 -0.721,-0.071 -1.084,-0.105l-0.038,0.407c0.362,0.033 0.721,0.068 1.081,0.105l0.041,-0.407Z" style="fill:#fff;fill-rule:nonzero;"/><path d="M99.087,7.224l0.007,-0.051c-0.359,-0.047 -0.718,-0.093 -1.08,-0.138l-0.05,0.405c0.178,0.022 0.356,0.045 0.534,0.068c0.186,-0.106 0.382,-0.202 0.589,-0.284" style="fill:#fff;fill-rule:nonzero;"/><path d="M90.43,6.3c-0.36,-0.026 -0.723,-0.05 -1.086,-0.073l-0.025,0.407c0.361,0.024 0.723,0.048 1.082,0.074l0.029,-0.408Z" style="fill:#fff;fill-rule:nonzero;"/><path d="M92.601,6.469c-0.361,-0.031 -0.723,-0.06 -1.085,-0.088l-0.032,0.407c0.361,0.028 0.722,0.058 1.082,0.089l0.035,-0.408Z" style="fill:#fff;fill-rule:nonzero;"/><path d="M134.186,65.843l0.188,0.364c0.325,-0.17 0.646,-0.34 0.964,-0.511l-0.195,-0.36c-0.315,0.17 -0.634,0.341 -0.957,0.507" style="fill:#fff;fill-rule:nonzero;"/><path d="M118.049,72.152l0.114,0.393c0.35,-0.102 0.699,-0.204 1.045,-0.307l-0.118,-0.391c-0.344,0.103 -0.692,0.205 -1.041,0.305" style="fill:#fff;fill-rule:nonzero;"/><path d="M120.127,71.531l0.122,0.388c0.349,-0.108 0.695,-0.217 1.039,-0.328l-0.126,-0.389c-0.342,0.11 -0.687,0.22 -1.035,0.329" style="fill:#fff;fill-rule:nonzero;"/><path d="M124.243,70.152l0.138,0.385c0.344,-0.123 0.686,-0.249 1.024,-0.376l-0.143,-0.383c-0.337,0.127 -0.676,0.252 -1.019,0.374" style="fill:#fff;fill-rule:nonzero;"/><path d="M122.194,70.863l0.13,0.388c0.345,-0.116 0.689,-0.233 1.031,-0.351l-0.135,-0.386c-0.34,0.118 -0.681,0.235 -1.026,0.349" style="fill:#fff;fill-rule:nonzero;"/><path d="M126.276,69.394l0.147,0.38c0.341,-0.13 0.679,-0.263 1.014,-0.398l-0.152,-0.379c-0.334,0.134 -0.67,0.266 -1.009,0.397" style="fill:#fff;fill-rule:nonzero;"/><path d="M130.281,67.728l0.167,0.373c0.333,-0.149 0.663,-0.301 0.991,-0.452l-0.172,-0.371c-0.326,0.152 -0.655,0.302 -0.986,0.45" style="fill:#fff;fill-rule:nonzero;"/><path d="M128.289,68.587l0.158,0.377c0.336,-0.141 0.671,-0.282 1.002,-0.425l-0.161,-0.375c-0.331,0.143 -0.664,0.283 -0.999,0.423" style="fill:#fff;fill-rule:nonzero;"/><path d="M107.496,74.663l0.077,0.401c0.357,-0.068 0.713,-0.138 1.067,-0.209l-0.079,-0.4c-0.353,0.072 -0.708,0.14 -1.065,0.208" style="fill:#fff;fill-rule:nonzero;"/><path d="M105.36,75.053l0.071,0.403c0.358,-0.063 0.716,-0.127 1.072,-0.191l-0.074,-0.403c-0.355,0.065 -0.711,0.129 -1.069,0.191" style="fill:#fff;fill-rule:nonzero;"/><path d="M132.246,66.814l0.178,0.369c0.329,-0.159 0.655,-0.32 0.979,-0.481l-0.184,-0.365c-0.321,0.161 -0.645,0.32 -0.973,0.477" style="fill:#fff;fill-rule:nonzero;"/><path d="M103.219,75.407l0.062,0.403c0.36,-0.056 0.719,-0.114 1.076,-0.172l-0.067,-0.404c-0.355,0.059 -0.713,0.116 -1.071,0.173" style="fill:#fff;fill-rule:nonzero;"/><path d="M113.857,73.273l0.098,0.397c0.353,-0.088 0.705,-0.177 1.056,-0.266l-0.102,-0.397c-0.349,0.091 -0.7,0.18 -1.052,0.266" style="fill:#fff;fill-rule:nonzero;"/><path d="M115.958,72.733l0.106,0.394c0.352,-0.094 0.703,-0.19 1.051,-0.286l-0.11,-0.394c-0.347,0.097 -0.696,0.191 -1.047,0.286" style="fill:#fff;fill-rule:nonzero;"/><path d="M111.745,73.775l0.09,0.398c0.356,-0.081 0.709,-0.163 1.062,-0.247l-0.095,-0.398c-0.351,0.084 -0.703,0.167 -1.057,0.247" style="fill:#fff;fill-rule:nonzero;"/><path d="M109.625,74.237l0.083,0.4c0.357,-0.075 0.712,-0.15 1.065,-0.227l-0.087,-0.4c-0.353,0.077 -0.706,0.153 -1.061,0.227" style="fill:#fff;fill-rule:nonzero;"/><path d="M147.973,55.535l0.308,0.268c0.242,-0.277 0.475,-0.556 0.703,-0.837l-0.318,-0.258c-0.225,0.278 -0.455,0.553 -0.693,0.827" style="fill:#fff;fill-rule:nonzero;"/><path d="M150.545,52.08l0.347,0.216c0.194,-0.313 0.38,-0.627 0.558,-0.943l-0.356,-0.199c-0.174,0.31 -0.357,0.618 -0.549,0.926" style="fill:#fff;fill-rule:nonzero;"/><path d="M151.597,50.204l0.366,0.182c0.164,-0.33 0.319,-0.66 0.465,-0.993l-0.375,-0.163c-0.142,0.326 -0.294,0.65 -0.456,0.974" style="fill:#fff;fill-rule:nonzero;"/><path d="M149.329,53.858l0.327,0.244c0.221,-0.295 0.432,-0.59 0.637,-0.89l-0.337,-0.231c-0.202,0.294 -0.41,0.587 -0.627,0.877" style="fill:#fff;fill-rule:nonzero;"/><path d="M153.094,46.185l0.397,0.098c0.088,-0.354 0.167,-0.712 0.234,-1.072l-0.401,-0.074c-0.065,0.351 -0.142,0.7 -0.23,1.048" style="fill:#fff;fill-rule:nonzero;"/><path d="M136.091,64.813l0.2,0.356c0.319,-0.181 0.635,-0.361 0.946,-0.543l-0.206,-0.353c-0.309,0.182 -0.623,0.361 -0.94,0.54" style="fill:#fff;fill-rule:nonzero;"/><path d="M101.072,75.727l0.057,0.404c0.36,-0.051 0.72,-0.101 1.077,-0.155l-0.06,-0.404c-0.356,0.053 -0.715,0.104 -1.074,0.155" style="fill:#fff;fill-rule:nonzero;"/><path d="M152.456,48.233l0.383,0.143c0.129,-0.344 0.247,-0.689 0.357,-1.036l-0.391,-0.123c-0.106,0.34 -0.222,0.68 -0.349,1.016" style="fill:#fff;fill-rule:nonzero;"/><path d="M153.488,44.078l0.405,0.05c0.045,-0.361 0.079,-0.727 0.101,-1.09l-0.407,-0.026c-0.022,0.357 -0.055,0.712 -0.099,1.066" style="fill:#fff;fill-rule:nonzero;"/><path d="M141.565,61.316l0.24,0.33c0.297,-0.216 0.589,-0.434 0.874,-0.653l-0.247,-0.324c-0.284,0.217 -0.574,0.433 -0.867,0.647" style="fill:#fff;fill-rule:nonzero;"/><path d="M139.788,62.553l0.225,0.341c0.305,-0.204 0.606,-0.409 0.902,-0.615l-0.233,-0.335c-0.293,0.205 -0.592,0.407 -0.894,0.609" style="fill:#fff;fill-rule:nonzero;"/><path d="M137.961,63.716l0.212,0.35c0.313,-0.191 0.622,-0.383 0.927,-0.578l-0.22,-0.344c-0.302,0.193 -0.609,0.383 -0.919,0.572" style="fill:#fff;fill-rule:nonzero;"/><path d="M36.619,70.645c0.341,0.121 0.684,0.239 1.03,0.357l0.131,-0.386c-0.344,-0.117 -0.685,-0.236 -1.025,-0.357l-0.136,0.386Z" style="fill:#fff;fill-rule:nonzero;"/><path d="M143.281,60.001l0.257,0.318c0.286,-0.23 0.567,-0.462 0.842,-0.695l-0.264,-0.312c-0.273,0.231 -0.551,0.461 -0.835,0.689" style="fill:#fff;fill-rule:nonzero;"/><path d="M144.933,58.602l0.272,0.306c0.275,-0.246 0.542,-0.493 0.804,-0.741l-0.28,-0.297c-0.26,0.247 -0.525,0.49 -0.796,0.732" style="fill:#fff;fill-rule:nonzero;"/><path d="M146.502,57.117l0.289,0.288c0.26,-0.262 0.512,-0.524 0.758,-0.788l-0.299,-0.279c-0.243,0.261 -0.492,0.52 -0.748,0.779" style="fill:#fff;fill-rule:nonzero;"/><path d="M51.31,74.683c0.355,0.073 0.71,0.145 1.069,0.216l0.078,-0.401c-0.356,-0.07 -0.711,-0.141 -1.064,-0.215l-0.083,0.4Z" style="fill:#fff;fill-rule:nonzero;"/><path d="M57.739,75.84c0.358,0.056 0.716,0.11 1.076,0.163l0.06,-0.404c-0.359,-0.053 -0.716,-0.107 -1.074,-0.163l-0.062,0.404Z" style="fill:#fff;fill-rule:nonzero;"/><path d="M53.447,75.105c0.355,0.067 0.713,0.132 1.071,0.196l0.072,-0.401c-0.357,-0.064 -0.713,-0.131 -1.067,-0.198l-0.076,0.403Z" style="fill:#fff;fill-rule:nonzero;"/><path d="M55.59,75.489c0.357,0.062 0.715,0.122 1.073,0.181l0.066,-0.404c-0.357,-0.058 -0.714,-0.117 -1.07,-0.178l-0.069,0.401Z" style="fill:#fff;fill-rule:nonzero;"/><path d="M64.215,76.69c0.359,0.039 0.721,0.076 1.083,0.113l0.04,-0.407c-0.36,-0.036 -0.721,-0.074 -1.079,-0.113l-0.044,0.407Z" style="fill:#fff;fill-rule:nonzero;"/><path d="M62.052,76.439c0.359,0.045 0.72,0.088 1.081,0.131l0.047,-0.407c-0.36,-0.041 -0.719,-0.084 -1.078,-0.129l-0.05,0.405Z" style="fill:#fff;fill-rule:nonzero;"/><path d="M59.893,76.158c0.359,0.05 0.719,0.097 1.079,0.146l0.054,-0.405c-0.36,-0.048 -0.718,-0.096 -1.076,-0.146l-0.057,0.405Z" style="fill:#fff;fill-rule:nonzero;"/><path d="M38.682,71.347c0.344,0.114 0.69,0.225 1.037,0.335l0.124,-0.389c-0.347,-0.109 -0.691,-0.221 -1.033,-0.334l-0.128,0.388Z" style="fill:#fff;fill-rule:nonzero;"/><path d="M40.759,72.006c0.346,0.105 0.694,0.209 1.043,0.313l0.116,-0.392c-0.348,-0.104 -0.695,-0.207 -1.04,-0.311l-0.119,0.39Z" style="fill:#fff;fill-rule:nonzero;"/><path d="M49.181,74.224c0.353,0.08 0.707,0.158 1.064,0.234l0.086,-0.399c-0.355,-0.076 -0.708,-0.154 -1.06,-0.233l-0.09,0.398Z" style="fill:#fff;fill-rule:nonzero;"/><path d="M42.848,72.62c0.348,0.099 0.698,0.196 1.049,0.293l0.107,-0.395c-0.35,-0.096 -0.697,-0.192 -1.044,-0.29l-0.112,0.392Z" style="fill:#fff;fill-rule:nonzero;"/><path d="M66.382,76.906c0.36,0.033 0.722,0.065 1.083,0.096l0.035,-0.406c-0.36,-0.031 -0.722,-0.063 -1.081,-0.097l-0.037,0.407Z" style="fill:#fff;fill-rule:nonzero;"/><path d="M44.949,73.195c0.349,0.091 0.702,0.183 1.055,0.272l0.1,-0.396c-0.353,-0.089 -0.704,-0.179 -1.051,-0.27l-0.104,0.394Z" style="fill:#fff;fill-rule:nonzero;"/><path d="M47.061,73.73c0.351,0.085 0.704,0.169 1.059,0.252l0.092,-0.398c-0.353,-0.082 -0.705,-0.166 -1.055,-0.251l-0.096,0.397Z" style="fill:#fff;fill-rule:nonzero;"/><path d="M72.896,77.366c0.361,0.018 0.724,0.034 1.088,0.048l0.017,-0.406c-0.363,-0.016 -0.724,-0.032 -1.085,-0.049l-0.02,0.407Z" style="fill:#fff;fill-rule:nonzero;"/><path d="M83.767,77.105l0.009,0.409c0.363,-0.008 0.726,-0.017 1.088,-0.027l-0.011,-0.408c-0.362,0.009 -0.723,0.019 -1.086,0.026" style="fill:#fff;fill-rule:nonzero;"/><path d="M90.274,76.828l0.026,0.407c0.364,-0.023 0.725,-0.048 1.086,-0.074l-0.029,-0.408c-0.359,0.027 -0.721,0.051 -1.083,0.075" style="fill:#fff;fill-rule:nonzero;"/><path d="M85.938,77.044l0.014,0.408c0.363,-0.013 0.726,-0.028 1.087,-0.042l-0.016,-0.409c-0.362,0.016 -0.724,0.03 -1.085,0.043" style="fill:#fff;fill-rule:nonzero;"/><path d="M88.106,76.951l0.02,0.409c0.364,-0.018 0.726,-0.038 1.088,-0.059l-0.023,-0.408c-0.361,0.021 -0.722,0.04 -1.085,0.058" style="fill:#fff;fill-rule:nonzero;"/><path d="M92.441,76.672l0.032,0.408c0.362,-0.03 0.724,-0.06 1.085,-0.091l-0.035,-0.407c-0.36,0.032 -0.72,0.062 -1.082,0.09" style="fill:#fff;fill-rule:nonzero;"/><path d="M96.762,76.265l0.045,0.407c0.362,-0.04 0.723,-0.081 1.082,-0.123l-0.048,-0.406c-0.358,0.043 -0.718,0.083 -1.079,0.122" style="fill:#fff;fill-rule:nonzero;"/><path d="M94.602,76.484l0.038,0.408c0.363,-0.035 0.724,-0.071 1.084,-0.107l-0.042,-0.406c-0.358,0.036 -0.718,0.073 -1.08,0.105" style="fill:#fff;fill-rule:nonzero;"/><path d="M68.55,77.091c0.362,0.028 0.723,0.055 1.086,0.08l0.029,-0.407c-0.362,-0.025 -0.722,-0.052 -1.083,-0.08l-0.032,0.407Z" style="fill:#fff;fill-rule:nonzero;"/><path d="M75.071,77.456c0.363,0.013 0.725,0.025 1.089,0.035l0.011,-0.409c-0.362,-0.01 -0.724,-0.021 -1.086,-0.034l-0.014,0.408Z" style="fill:#fff;fill-rule:nonzero;"/><path d="M98.92,76.013l0.051,0.405c0.36,-0.046 0.72,-0.091 1.08,-0.139l-0.055,-0.405c-0.358,0.047 -0.717,0.093 -1.076,0.139" style="fill:#fff;fill-rule:nonzero;"/><path d="M70.722,77.244c0.361,0.024 0.724,0.045 1.087,0.066l0.022,-0.408c-0.362,-0.021 -0.723,-0.042 -1.083,-0.064l-0.026,0.406Z" style="fill:#fff;fill-rule:nonzero;"/><path d="M77.248,77.517c0.361,0.007 0.724,0.014 1.088,0.018l0.005,-0.409c-0.363,-0.003 -0.724,-0.01 -1.085,-0.018l-0.008,0.409Z" style="fill:#fff;fill-rule:nonzero;"/><path d="M81.597,77.137l0.004,0.409c0.363,-0.002 0.725,-0.006 1.087,-0.012l-0.007,-0.408c-0.36,0.004 -0.721,0.009 -1.084,0.011" style="fill:#fff;fill-rule:nonzero;"/><path d="M79.425,77.547l1.088,0.003l0,-0.409l-1.086,-0.003l-0.002,0.409Z" style="fill:#fff;fill-rule:nonzero;"/><path d="M32.853,46.45c-0.077,-0.145 -0.144,-0.295 -0.208,-0.446l-20.308,-0.075c-0.261,0 -0.472,0.209 -0.473,0.471c-0.001,0.26 0.209,0.473 0.47,0.474l20.83,0.076c-0.108,-0.162 -0.217,-0.325 -0.311,-0.5" style="fill:#fff;fill-rule:nonzero;"/><path d="M51.039,46.072l-5.853,-0.022c-0.251,0.328 -0.534,0.642 -0.846,0.942l6.696,0.025c0.26,0.001 0.473,-0.211 0.473,-0.471c0.001,-0.261 -0.209,-0.473 -0.47,-0.474" style="fill:#fff;fill-rule:nonzero;"/></svg>