<?xml version="1.0" standalone="no"?><!DOCTYPE svg PUBLIC "-//W3C//DTD SVG 1.1//EN" "http://www.w3.org/Graphics/SVG/1.1/DTD/svg11.dtd"><svg width="100%" height="100%" viewBox="0 0 55 56" version="1.1" xmlns="http://www.w3.org/2000/svg" xmlns:xlink="http://www.w3.org/1999/xlink" xml:space="preserve" style="fill-rule:evenodd;clip-rule:evenodd;stroke-linejoin:round;stroke-miterlimit:1.41421;"><g><g><path d="M20.699,5.474l-0.1,-0.331c-0.222,0.068 -0.443,0.139 -0.662,0.213l0.11,0.327c0.216,-0.073 0.433,-0.143 0.652,-0.209" style="fill:#72aeb5;fill-rule:nonzero;"/><path d="M22.019,5.114l-0.081,-0.336c-0.226,0.054 -0.449,0.112 -0.673,0.173l0.09,0.334c0.221,-0.061 0.442,-0.117 0.664,-0.171" style="fill:#72aeb5;fill-rule:nonzero;"/><path d="M23.357,4.834l-0.061,-0.34c-0.228,0.041 -0.456,0.085 -0.682,0.132l0.071,0.338c0.222,-0.047 0.447,-0.091 0.672,-0.13" style="fill:#72aeb5;fill-rule:nonzero;"/><path d="M18.138,6.425l-0.14,-0.315c-0.211,0.094 -0.421,0.19 -0.629,0.289l0.148,0.312c0.205,-0.098 0.413,-0.193 0.621,-0.286" style="fill:#72aeb5;fill-rule:nonzero;"/><path d="M19.403,5.912l-0.12,-0.324c-0.218,0.082 -0.433,0.165 -0.648,0.252l0.13,0.32c0.211,-0.086 0.424,-0.168 0.638,-0.248" style="fill:#72aeb5;fill-rule:nonzero;"/><path d="M31.583,4.491c-0.227,-0.04 -0.455,-0.078 -0.685,-0.111l-0.05,0.341c0.226,0.033 0.451,0.07 0.675,0.11l0.06,-0.34Z" style="fill:#72aeb5;fill-rule:nonzero;"/><path d="M28.827,4.167c-0.229,-0.013 -0.461,-0.023 -0.693,-0.03l-0.01,0.345c0.229,0.007 0.457,0.017 0.684,0.029l0.019,-0.344Z" style="fill:#72aeb5;fill-rule:nonzero;"/><path d="M26.079,50.941c0.229,0.014 0.46,0.025 0.692,0.033l0.012,-0.345c-0.229,-0.008 -0.457,-0.019 -0.684,-0.032l-0.02,0.344Z" style="fill:#72aeb5;fill-rule:nonzero;"/><path d="M27.44,4.472l-0.001,-0.345c-0.231,0 -0.463,0.003 -0.693,0.01l0.01,0.345c0.227,-0.006 0.455,-0.01 0.684,-0.01" style="fill:#72aeb5;fill-rule:nonzero;"/><path d="M24.734,50.479l-0.04,0.343c0.23,0.027 0.461,0.05 0.691,0.07l0.03,-0.344c-0.227,-0.02 -0.454,-0.043 -0.681,-0.069" style="fill:#72aeb5;fill-rule:nonzero;"/><path d="M26.073,4.512l-0.021,-0.344c-0.232,0.014 -0.462,0.031 -0.692,0.05l0.03,0.345c0.227,-0.021 0.454,-0.038 0.683,-0.051" style="fill:#72aeb5;fill-rule:nonzero;"/><path d="M27.467,50.634l0,0.345c0.233,0 0.464,-0.004 0.694,-0.01l-0.009,-0.345c-0.228,0.007 -0.456,0.01 -0.685,0.01" style="fill:#72aeb5;fill-rule:nonzero;"/><path d="M24.71,4.632l-0.041,-0.342c-0.23,0.027 -0.46,0.057 -0.688,0.091l0.051,0.342c0.224,-0.034 0.451,-0.064 0.678,-0.091" style="fill:#72aeb5;fill-rule:nonzero;"/><path d="M28.834,50.595l0.021,0.344c0.231,-0.014 0.462,-0.031 0.691,-0.051l-0.03,-0.345c-0.226,0.021 -0.454,0.038 -0.682,0.052" style="fill:#72aeb5;fill-rule:nonzero;"/><path d="M16.906,7.013l-0.158,-0.306c-0.205,0.105 -0.408,0.214 -0.61,0.325l0.166,0.302c0.199,-0.109 0.4,-0.217 0.602,-0.321" style="fill:#72aeb5;fill-rule:nonzero;"/><path d="M30.21,4.288c-0.229,-0.026 -0.459,-0.05 -0.691,-0.071l-0.03,0.344c0.228,0.021 0.455,0.044 0.681,0.07l0.04,-0.343Z" style="fill:#72aeb5;fill-rule:nonzero;"/><path d="M7.931,15.223l-0.291,-0.186c-0.125,0.196 -0.246,0.394 -0.364,0.593l0.297,0.176c0.117,-0.197 0.236,-0.391 0.358,-0.583" style="fill:#72aeb5;fill-rule:nonzero;"/><path d="M8.697,14.087l-0.28,-0.202c-0.136,0.188 -0.267,0.379 -0.397,0.571l0.286,0.194c0.127,-0.19 0.258,-0.377 0.391,-0.563" style="fill:#72aeb5;fill-rule:nonzero;"/><path d="M7.233,16.401l-0.302,-0.167c-0.112,0.203 -0.221,0.407 -0.328,0.613l0.307,0.159c0.105,-0.203 0.212,-0.406 0.323,-0.605" style="fill:#72aeb5;fill-rule:nonzero;"/><path d="M9.53,13l-0.268,-0.217c-0.147,0.179 -0.29,0.361 -0.431,0.545l0.274,0.21c0.139,-0.181 0.28,-0.36 0.425,-0.538" style="fill:#72aeb5;fill-rule:nonzero;"/><path d="M5.286,34.03c-0.139,-0.052 -0.27,-0.11 -0.406,-0.164c0.051,0.185 0.105,0.371 0.161,0.554l0.33,-0.1c-0.03,-0.097 -0.056,-0.194 -0.085,-0.29" style="fill:#72aeb5;fill-rule:nonzero;"/><path d="M15.711,7.673l-0.175,-0.297c-0.199,0.117 -0.395,0.238 -0.592,0.362l0.186,0.292c0.192,-0.122 0.386,-0.241 0.581,-0.357" style="fill:#72aeb5;fill-rule:nonzero;"/><path d="M10.423,11.965l-0.254,-0.233c-0.156,0.17 -0.31,0.343 -0.461,0.519l0.261,0.225c0.149,-0.173 0.301,-0.343 0.454,-0.511" style="fill:#72aeb5;fill-rule:nonzero;"/><path d="M14.558,8.403l-0.193,-0.287c-0.193,0.129 -0.382,0.262 -0.57,0.397l0.202,0.28c0.185,-0.132 0.371,-0.263 0.561,-0.39" style="fill:#72aeb5;fill-rule:nonzero;"/><path d="M13.447,9.2l-0.209,-0.274c-0.184,0.14 -0.366,0.283 -0.545,0.429l0.218,0.268c0.176,-0.144 0.356,-0.285 0.536,-0.423" style="fill:#72aeb5;fill-rule:nonzero;"/><path d="M12.386,10.062l-0.225,-0.262c-0.175,0.151 -0.349,0.305 -0.519,0.461l0.233,0.255c0.168,-0.154 0.339,-0.306 0.511,-0.454" style="fill:#72aeb5;fill-rule:nonzero;"/><path d="M11.378,10.984l-0.241,-0.248c-0.166,0.162 -0.33,0.325 -0.491,0.491l0.248,0.241c0.159,-0.164 0.32,-0.325 0.484,-0.484" style="fill:#72aeb5;fill-rule:nonzero;"/><path d="M34.283,5.14c-0.222,-0.067 -0.444,-0.132 -0.668,-0.192l-0.09,0.333c0.22,0.06 0.439,0.123 0.657,0.189l0.101,-0.33Z" style="fill:#72aeb5;fill-rule:nonzero;"/><path d="M48.599,17.471c-0.099,-0.208 -0.202,-0.415 -0.308,-0.62l-0.307,0.158c0.104,0.202 0.206,0.406 0.303,0.611l0.312,-0.149Z" style="fill:#72aeb5;fill-rule:nonzero;"/><path d="M49.315,20.15l0.328,-0.111c-0.075,-0.219 -0.153,-0.438 -0.233,-0.654l-0.324,0.12c0.079,0.214 0.156,0.428 0.229,0.645" style="fill:#72aeb5;fill-rule:nonzero;"/><path d="M48.838,18.867l0.32,-0.13c-0.087,-0.213 -0.177,-0.425 -0.27,-0.636l-0.315,0.139c0.091,0.208 0.179,0.417 0.265,0.627" style="fill:#72aeb5;fill-rule:nonzero;"/><path d="M47.259,15.048c-0.123,-0.196 -0.25,-0.389 -0.378,-0.58l-0.287,0.192c0.128,0.189 0.252,0.38 0.375,0.572l0.29,-0.184Z" style="fill:#72aeb5;fill-rule:nonzero;"/><path d="M46.484,13.898c-0.135,-0.188 -0.272,-0.373 -0.413,-0.557l-0.275,0.21c0.139,0.181 0.274,0.364 0.408,0.549l0.28,-0.202Z" style="fill:#72aeb5;fill-rule:nonzero;"/><path d="M50.035,22.788l0.338,-0.072c-0.047,-0.227 -0.098,-0.452 -0.153,-0.677l-0.335,0.081c0.053,0.221 0.104,0.444 0.15,0.668" style="fill:#72aeb5;fill-rule:nonzero;"/><path d="M49.715,21.458l0.333,-0.091c-0.061,-0.224 -0.126,-0.446 -0.193,-0.667l-0.33,0.101c0.067,0.218 0.129,0.436 0.19,0.657" style="fill:#72aeb5;fill-rule:nonzero;"/><path d="M50.518,26.857l0.346,-0.01c-0.007,-0.232 -0.018,-0.463 -0.032,-0.693l-0.344,0.02c0.014,0.227 0.024,0.455 0.03,0.683" style="fill:#72aeb5;fill-rule:nonzero;"/><path d="M50.438,25.492l0.344,-0.03c-0.021,-0.232 -0.045,-0.462 -0.073,-0.691l-0.342,0.041c0.027,0.225 0.05,0.453 0.071,0.68" style="fill:#72aeb5;fill-rule:nonzero;"/><path d="M50.276,24.134l0.342,-0.051c-0.034,-0.229 -0.072,-0.458 -0.112,-0.685l-0.34,0.06c0.039,0.225 0.077,0.45 0.11,0.676" style="fill:#72aeb5;fill-rule:nonzero;"/><path d="M45.642,12.796c-0.146,-0.18 -0.294,-0.357 -0.445,-0.532l-0.262,0.226c0.149,0.172 0.295,0.347 0.439,0.524l0.268,-0.218Z" style="fill:#72aeb5;fill-rule:nonzero;"/><path d="M36.892,6.109c-0.212,-0.093 -0.426,-0.184 -0.641,-0.271l-0.13,0.32c0.213,0.085 0.423,0.174 0.631,0.267l0.14,-0.316Z" style="fill:#72aeb5;fill-rule:nonzero;"/><path d="M44.735,11.745c-0.155,-0.17 -0.314,-0.338 -0.476,-0.504l-0.247,0.24c0.159,0.163 0.315,0.329 0.469,0.498l0.254,-0.234Z" style="fill:#72aeb5;fill-rule:nonzero;"/><path d="M38.148,6.708c-0.206,-0.105 -0.414,-0.209 -0.623,-0.308l-0.149,0.312c0.206,0.097 0.411,0.199 0.614,0.304l0.158,-0.308Z" style="fill:#72aeb5;fill-rule:nonzero;"/><path d="M35.602,5.586c-0.217,-0.081 -0.436,-0.159 -0.656,-0.233l-0.111,0.327c0.216,0.073 0.432,0.15 0.647,0.229l0.12,-0.323Z" style="fill:#72aeb5;fill-rule:nonzero;"/><path d="M39.365,7.381c-0.199,-0.118 -0.4,-0.234 -0.604,-0.345l-0.166,0.302c0.2,0.11 0.398,0.224 0.594,0.339l0.176,-0.296Z" style="fill:#72aeb5;fill-rule:nonzero;"/><path d="M5.58,34.971l-0.326,0.111c0.074,0.219 0.152,0.437 0.233,0.653l0.324,-0.12c-0.081,-0.213 -0.157,-0.428 -0.231,-0.644" style="fill:#72aeb5;fill-rule:nonzero;"/><path d="M32.942,4.776c-0.224,-0.054 -0.45,-0.105 -0.677,-0.153l-0.071,0.338c0.224,0.047 0.447,0.097 0.667,0.15l0.081,-0.335Z" style="fill:#72aeb5;fill-rule:nonzero;"/><path d="M42.746,9.811c-0.176,-0.151 -0.353,-0.299 -0.533,-0.445l-0.218,0.267c0.177,0.145 0.352,0.291 0.525,0.44l0.226,-0.262Z" style="fill:#72aeb5;fill-rule:nonzero;"/><path d="M43.77,10.75c-0.166,-0.161 -0.335,-0.321 -0.506,-0.477l-0.234,0.255c0.169,0.154 0.336,0.31 0.499,0.469l0.241,-0.247Z" style="fill:#72aeb5;fill-rule:nonzero;"/><path d="M40.54,8.125c-0.193,-0.13 -0.386,-0.257 -0.583,-0.381l-0.184,0.292c0.194,0.122 0.384,0.247 0.573,0.375l0.194,-0.286Z" style="fill:#72aeb5;fill-rule:nonzero;"/><path d="M41.668,8.936c-0.184,-0.14 -0.37,-0.279 -0.558,-0.414l-0.202,0.281c0.185,0.132 0.369,0.268 0.55,0.407l0.21,-0.274Z" style="fill:#72aeb5;fill-rule:nonzero;"/><path d="M50.042,32.296l0.338,0.071c0.046,-0.227 0.09,-0.454 0.131,-0.681l-0.34,-0.062c-0.04,0.225 -0.083,0.449 -0.129,0.672" style="fill:#72aeb5;fill-rule:nonzero;"/><path d="M45.37,42.098l0.268,0.218c0.147,-0.18 0.29,-0.361 0.431,-0.546l-0.275,-0.209c-0.138,0.181 -0.279,0.36 -0.424,0.537" style="fill:#72aeb5;fill-rule:nonzero;"/><path d="M6.059,36.252l-0.32,0.13c0.087,0.214 0.178,0.427 0.271,0.637l0.315,-0.139c-0.092,-0.208 -0.18,-0.417 -0.266,-0.628" style="fill:#72aeb5;fill-rule:nonzero;"/><path d="M41.454,45.901l0.211,0.274c0.183,-0.14 0.365,-0.283 0.544,-0.429l-0.218,-0.268c-0.176,0.144 -0.355,0.285 -0.537,0.423" style="fill:#72aeb5;fill-rule:nonzero;"/><path d="M44.477,43.135l0.254,0.233c0.157,-0.171 0.31,-0.344 0.462,-0.52l-0.261,-0.225c-0.149,0.173 -0.301,0.343 -0.455,0.512" style="fill:#72aeb5;fill-rule:nonzero;"/><path d="M43.524,44.116l0.24,0.248c0.166,-0.161 0.33,-0.325 0.491,-0.491l-0.247,-0.241c-0.159,0.164 -0.321,0.325 -0.484,0.484" style="fill:#72aeb5;fill-rule:nonzero;"/><path d="M42.516,45.039l0.225,0.262c0.175,-0.152 0.348,-0.305 0.518,-0.461l-0.232,-0.255c-0.169,0.154 -0.339,0.306 -0.511,0.454" style="fill:#72aeb5;fill-rule:nonzero;"/><path d="M35.501,49.192l0.121,0.324c0.217,-0.081 0.433,-0.166 0.647,-0.252l-0.131,-0.32c-0.21,0.085 -0.423,0.169 -0.637,0.248" style="fill:#72aeb5;fill-rule:nonzero;"/><path d="M34.206,49.632l0.101,0.33c0.222,-0.069 0.442,-0.139 0.66,-0.213l-0.111,-0.328c-0.215,0.073 -0.431,0.144 -0.65,0.211" style="fill:#72aeb5;fill-rule:nonzero;"/><path d="M37.997,48.089l0.158,0.307c0.206,-0.106 0.41,-0.214 0.611,-0.326l-0.167,-0.302c-0.198,0.11 -0.399,0.217 -0.602,0.321" style="fill:#72aeb5;fill-rule:nonzero;"/><path d="M36.766,48.678l0.14,0.315c0.211,-0.093 0.421,-0.189 0.629,-0.288l-0.149,-0.312c-0.205,0.098 -0.412,0.193 -0.62,0.285" style="fill:#72aeb5;fill-rule:nonzero;"/><path d="M39.192,47.429l0.176,0.297c0.198,-0.118 0.396,-0.238 0.59,-0.362l-0.184,-0.292c-0.192,0.122 -0.386,0.24 -0.582,0.357" style="fill:#72aeb5;fill-rule:nonzero;"/><path d="M48.845,36.223l0.32,0.13c0.087,-0.215 0.171,-0.431 0.252,-0.649l-0.324,-0.12c-0.079,0.214 -0.162,0.427 -0.248,0.639" style="fill:#72aeb5;fill-rule:nonzero;"/><path d="M49.721,33.626l0.334,0.091c0.06,-0.223 0.118,-0.447 0.172,-0.673l-0.336,-0.08c-0.053,0.222 -0.109,0.442 -0.17,0.662" style="fill:#72aeb5;fill-rule:nonzero;"/><path d="M50.28,30.95l0.341,0.051c0.035,-0.229 0.065,-0.459 0.092,-0.689l-0.343,-0.041c-0.027,0.228 -0.056,0.453 -0.09,0.679" style="fill:#72aeb5;fill-rule:nonzero;"/><path d="M50.529,27.554c0,0.225 -0.004,0.448 -0.01,0.671l0.345,0.01c0.006,-0.226 0.01,-0.452 0.01,-0.681l0,-0.012l-0.345,0.012Z" style="fill:#72aeb5;fill-rule:nonzero;"/><path d="M49.323,34.937l0.327,0.11c0.074,-0.22 0.145,-0.44 0.213,-0.663l-0.331,-0.101c-0.066,0.219 -0.136,0.437 -0.209,0.654" style="fill:#72aeb5;fill-rule:nonzero;"/><path d="M50.44,29.591l0.344,0.03c0.02,-0.23 0.037,-0.461 0.05,-0.693l-0.345,-0.019c-0.013,0.228 -0.029,0.455 -0.049,0.682" style="fill:#72aeb5;fill-rule:nonzero;"/><path d="M47.666,38.697l0.301,0.167c0.113,-0.203 0.222,-0.408 0.328,-0.614l-0.307,-0.158c-0.105,0.204 -0.212,0.405 -0.322,0.605" style="fill:#72aeb5;fill-rule:nonzero;"/><path d="M47.622,15.638l-0.298,0.176c0.117,0.196 0.229,0.394 0.34,0.593l0.302,-0.167c-0.112,-0.202 -0.227,-0.402 -0.344,-0.602" style="fill:#72aeb5;fill-rule:nonzero;"/><path d="M32.886,49.991l0.082,0.336c0.225,-0.055 0.449,-0.112 0.672,-0.173l-0.091,-0.333c-0.22,0.06 -0.44,0.117 -0.663,0.17" style="fill:#72aeb5;fill-rule:nonzero;"/><path d="M46.969,39.876l0.291,0.184c0.124,-0.195 0.245,-0.393 0.363,-0.592l-0.298,-0.176c-0.116,0.196 -0.235,0.392 -0.356,0.584" style="fill:#72aeb5;fill-rule:nonzero;"/><path d="M46.202,41.011l0.281,0.202c0.135,-0.188 0.267,-0.379 0.397,-0.571l-0.286,-0.193c-0.128,0.19 -0.259,0.377 -0.392,0.562" style="fill:#72aeb5;fill-rule:nonzero;"/><path d="M48.292,37.478l0.312,0.149c0.099,-0.209 0.197,-0.42 0.29,-0.633l-0.315,-0.139c-0.093,0.209 -0.189,0.418 -0.287,0.623" style="fill:#72aeb5;fill-rule:nonzero;"/><path d="M40.345,46.699l0.193,0.286c0.192,-0.13 0.382,-0.261 0.569,-0.396l-0.202,-0.281c-0.184,0.133 -0.371,0.263 -0.56,0.391" style="fill:#72aeb5;fill-rule:nonzero;"/><path d="M12.157,45.305c0.175,0.151 0.352,0.299 0.532,0.446l0.218,-0.268c-0.177,-0.144 -0.352,-0.291 -0.525,-0.439l-0.225,0.261Z" style="fill:#72aeb5;fill-rule:nonzero;"/><path d="M11.132,44.367c0.166,0.162 0.335,0.32 0.505,0.477l0.234,-0.256c-0.168,-0.153 -0.335,-0.31 -0.498,-0.468l-0.241,0.247Z" style="fill:#72aeb5;fill-rule:nonzero;"/><path d="M13.234,46.181c0.184,0.14 0.371,0.278 0.559,0.414l0.202,-0.281c-0.186,-0.133 -0.37,-0.27 -0.551,-0.408l-0.21,0.275Z" style="fill:#72aeb5;fill-rule:nonzero;"/><path d="M10.165,43.373c0.156,0.17 0.314,0.338 0.476,0.504l0.248,-0.24c-0.159,-0.164 -0.316,-0.33 -0.469,-0.498l-0.255,0.234Z" style="fill:#72aeb5;fill-rule:nonzero;"/><path d="M14.363,46.991c0.192,0.13 0.386,0.256 0.582,0.38l0.185,-0.291c-0.193,-0.123 -0.384,-0.248 -0.574,-0.376l-0.193,0.287Z" style="fill:#72aeb5;fill-rule:nonzero;"/><path d="M8.415,41.22c0.136,0.188 0.273,0.373 0.414,0.557l0.274,-0.21c-0.138,-0.18 -0.273,-0.363 -0.407,-0.549l-0.281,0.202Z" style="fill:#72aeb5;fill-rule:nonzero;"/><path d="M9.258,42.322c0.146,0.179 0.295,0.357 0.446,0.532l0.26,-0.226c-0.148,-0.173 -0.294,-0.348 -0.438,-0.525l-0.268,0.219Z" style="fill:#72aeb5;fill-rule:nonzero;"/><path d="M6.299,37.648c0.1,0.209 0.202,0.416 0.308,0.62l0.307,-0.158c-0.105,-0.202 -0.205,-0.406 -0.304,-0.611l-0.311,0.149Z" style="fill:#72aeb5;fill-rule:nonzero;"/><path d="M6.932,38.879c0.113,0.203 0.227,0.404 0.346,0.602l0.297,-0.176c-0.117,-0.195 -0.229,-0.393 -0.34,-0.592l-0.303,0.166Z" style="fill:#72aeb5;fill-rule:nonzero;"/><path d="M15.538,47.734c0.2,0.118 0.401,0.233 0.604,0.345l0.167,-0.302c-0.2,-0.11 -0.398,-0.224 -0.596,-0.341l-0.175,0.298Z" style="fill:#72aeb5;fill-rule:nonzero;"/><path d="M7.64,40.072c0.123,0.195 0.25,0.388 0.379,0.579l0.286,-0.193c-0.127,-0.189 -0.252,-0.379 -0.374,-0.571l-0.291,0.185Z" style="fill:#72aeb5;fill-rule:nonzero;"/><path d="M19.302,49.527c0.218,0.081 0.437,0.159 0.657,0.233l0.111,-0.327c-0.218,-0.074 -0.434,-0.15 -0.648,-0.23l-0.12,0.324Z" style="fill:#72aeb5;fill-rule:nonzero;"/><path d="M30.195,50.475l0.041,0.342c0.231,-0.027 0.46,-0.058 0.688,-0.092l-0.05,-0.341c-0.226,0.033 -0.452,0.063 -0.679,0.091" style="fill:#72aeb5;fill-rule:nonzero;"/><path d="M21.962,50.336c0.225,0.054 0.451,0.105 0.678,0.152l0.07,-0.338c-0.223,-0.046 -0.446,-0.096 -0.667,-0.149l-0.081,0.335Z" style="fill:#72aeb5;fill-rule:nonzero;"/><path d="M31.548,50.273l0.061,0.34c0.228,-0.041 0.455,-0.085 0.682,-0.133l-0.071,-0.337c-0.223,0.046 -0.448,0.09 -0.672,0.13" style="fill:#72aeb5;fill-rule:nonzero;"/><path d="M18.013,49.005c0.211,0.093 0.425,0.184 0.64,0.27l0.13,-0.319c-0.212,-0.086 -0.423,-0.176 -0.632,-0.267l-0.138,0.316Z" style="fill:#72aeb5;fill-rule:nonzero;"/><path d="M16.756,48.405c0.206,0.107 0.413,0.209 0.624,0.309l0.148,-0.311c-0.207,-0.099 -0.411,-0.2 -0.615,-0.304l-0.157,0.306Z" style="fill:#72aeb5;fill-rule:nonzero;"/><path d="M23.322,50.619c0.227,0.041 0.456,0.078 0.685,0.112l0.05,-0.342c-0.226,-0.033 -0.45,-0.07 -0.675,-0.109l-0.06,0.339Z" style="fill:#72aeb5;fill-rule:nonzero;"/><path d="M20.623,49.972c0.22,0.068 0.444,0.132 0.667,0.192l0.091,-0.333c-0.221,-0.06 -0.44,-0.123 -0.657,-0.19l-0.101,0.331Z" style="fill:#72aeb5;fill-rule:nonzero;"/><path d="M31.996,11.094c-7.997,0.128 -11.893,10.028 -10.968,17.109c0.088,0.809 0.215,1.613 0.411,2.314c9.292,-2.948 14.087,-10.211 14.244,-15.162c0.046,-2.468 -1.218,-4.29 -3.687,-4.261M36.452,31.213c-0.206,0.528 -0.656,3.552 -1.734,8.015c-1.322,5.425 -3.272,8.906 -8.164,9.243c-3.267,0.252 -5.156,-1.648 -5.441,-3.798c-0.278,-2.069 1.134,-4.399 4.37,-4.724c0.217,0.903 0.43,1.809 0.641,2.715c-1.449,0.297 -2.094,1.402 -1.998,2.368c0.105,1.06 0.986,1.973 2.517,1.862c4.042,-0.26 4.159,-4.773 5.651,-11.545c-1.201,1.24 -2.995,2.114 -5.79,2.298c-3.785,0.26 -6.404,-1.742 -8.034,-4.748c-0.584,0.11 -1.169,0.227 -1.798,0.325c-9.119,1.466 -14.322,-1.258 -15.506,-5.288c-1.092,-3.664 1.85,-8.493 8.869,-9.838c1.437,-0.268 2.782,-0.239 4.014,0.043c-0.384,0.766 -0.76,1.537 -1.128,2.307c-1.075,-0.233 -2.134,-0.297 -3.458,-0.039c-4.131,0.811 -6.203,4.255 -5.459,7.058c0.837,3.172 4.698,5.454 12.432,4.208c0.481,-0.073 0.957,-0.144 1.392,-0.234c-0.34,-0.964 -0.617,-2.034 -0.777,-3.146c-1.332,-7.768 3.561,-18.557 15.113,-18.771c5.431,-0.038 7.856,2.83 7.66,6.277c-0.409,5.86 -7.097,13.215 -17.854,16.297c1.035,2.572 2.813,4.111 5.49,3.952c5.485,-0.257 5.595,-5.695 7.544,-8.839c1.08,0.379 2.151,0.769 3.209,1.178c-0.601,0.937 -1.188,1.877 -1.761,2.824" style="fill:#72aeb5;fill-rule:nonzero;"/><path d="M27.447,2.499c-10.529,0 -19.555,6.531 -23.258,15.751c0.158,-0.092 0.319,-0.184 0.483,-0.271c3.748,-8.881 12.545,-15.131 22.775,-15.131c13.622,0 24.706,11.084 24.706,24.706c0,13.623 -11.084,24.706 -24.706,24.706c-11.697,0 -21.514,-8.172 -24.059,-19.104c-0.143,-0.08 -0.279,-0.165 -0.416,-0.249c2.459,11.251 12.496,19.702 24.475,19.702c13.815,0 25.054,-11.239 25.054,-25.055c0,-13.814 -11.239,-25.055 -25.054,-25.055" style="fill:#72aeb5;fill-rule:nonzero;"/><path d="M27.446,0c-13.109,0 -24.102,9.205 -26.873,21.489c0.566,-0.801 1.26,-1.527 2.065,-2.173c3.46,-10.391 13.27,-17.907 24.808,-17.907c14.416,0 26.145,11.729 26.145,26.145c0,14.417 -11.729,26.146 -26.145,26.146c-12.923,0 -23.679,-9.425 -25.771,-21.761c-0.676,-0.598 -1.239,-1.273 -1.675,-2.023c1.203,14.091 13.048,25.193 27.446,25.193c15.193,0 27.554,-12.362 27.554,-27.555c0,-15.193 -12.361,-27.554 -27.554,-27.554" style="fill:#72aeb5;fill-rule:nonzero;"/></g></g></svg>