<?xml version="1.0" encoding="UTF-8" standalone="no"?>
<svg width="140px" height="140px" viewBox="0 0 140 140" version="1.1" xmlns="http://www.w3.org/2000/svg" xmlns:xlink="http://www.w3.org/1999/xlink" xmlns:sketch="http://www.bohemiancoding.com/sketch/ns">
    <title>coustard</title>
    <description>Created with Sketch (http://www.bohemiancoding.com/sketch)</description>
    <defs></defs>
    <g id="Page-1" stroke="none" stroke-width="1" fill="none" fill-rule="evenodd" sketch:type="MSPage">
        <g id="coustard-copy" sketch:type="MSLayerGroup" fill="#FFFFFF">
            <g id="Description-+-Co" transform="translate(9.000000, 35.000000)">
                <text id="Description" sketch:type="MSTextLayer" font-family="Helvetica Neue" font-size="13" font-weight="normal" sketch:alignment="middle">
                    <tspan x="25.4905" y="68">COUSTARD</tspan>
                </text>
                <path d="M60.5302734,16.4404297 L57.8959961,16.4404297 C57.7055655,16.4404297 57.4622411,16.2447122 57.1660156,15.8532715 C56.8697902,15.4618307 56.5259622,14.959313 56.1345215,14.3457031 C55.7430807,13.7320933 55.2934596,13.0497271 54.7856445,12.298584 C54.2778295,11.5474409 53.6800978,10.8015988 52.9924316,10.0610352 C52.3047654,9.32047156 51.5747923,8.643395 50.8024902,8.02978516 C50.0301882,7.41617532 49.1203666,6.91365756 48.072998,6.5222168 C47.0256295,6.13077604 45.9412491,5.93505859 44.8198242,5.93505859 C42.8520409,5.93505859 41.0323977,6.28946586 39.3608398,6.99829102 C37.689282,7.70711617 36.271653,8.65925509 35.1079102,9.85473633 C33.9441674,11.0502176 32.9444215,12.446688 32.1086426,14.0441895 C31.2728637,15.6416909 30.659263,17.3290927 30.2678223,19.1064453 C29.8763815,20.8837979 29.6806641,22.7034412 29.6806641,24.5654297 C29.6806641,26.3427823 29.9186988,28.0725014 30.3947754,29.7546387 C30.870852,31.436776 31.6008252,33.0289638 32.5847168,34.53125 C33.5686084,36.0335362 34.7534924,37.3506617 36.1394043,38.482666 C37.5253162,39.6146704 39.2021386,40.5139127 41.1699219,41.1804199 C43.1377052,41.8469272 45.2747281,42.1801758 47.5810547,42.1801758 C52.5110924,42.1801758 57.0602005,40.6250156 61.2285156,37.5146484 C62.0537151,38.6149144 62.4663086,39.6940051 62.4663086,40.7519531 C62.4663086,42.2753982 61.6464112,43.6771583 60.0065918,44.9572754 C58.3667724,46.2373925 56.3514117,47.2054004 53.9604492,47.8613281 C51.5694867,48.5172559 49.1574015,48.8452148 46.7241211,48.8452148 C43.4656413,48.8452148 40.4664037,48.390304 37.7263184,47.4804688 C34.986233,46.5706335 32.664072,45.3434322 30.7597656,43.7988281 C28.8554592,42.254224 27.2315334,40.4504498 25.8879395,38.3874512 C24.5443455,36.3244526 23.5604686,34.1398227 22.9362793,31.8334961 C22.31209,29.5271695 22,27.1468222 22,24.6923828 C22,21.3704261 22.5395454,18.207209 23.6186523,15.2026367 C24.6977593,12.1980644 26.1894436,9.57439272 28.09375,7.33154297 C29.9980564,5.08869321 32.357245,3.30607758 35.1713867,1.98364258 C37.9855284,0.661207581 41.0217936,0 44.2802734,0 C46.3538515,0 48.4538468,0.460200476 50.5803223,1.38061523 C52.7067977,2.30102999 54.4259375,3.66047278 55.737793,5.45898438 C55.737793,2.28514038 56.1503865,0.698242188 56.9755859,0.698242188 L60.5302734,0.698242188 C61.5459035,0.698242188 62.0537109,1.7984916 62.0537109,3.99902344 L62.0537109,12.4731445 C62.0537109,13.6792052 61.9955247,14.5625786 61.8791504,15.123291 C61.7627761,15.6840035 61.6146656,16.0331211 61.4348145,16.1706543 C61.2549633,16.3081875 60.9534526,16.3981118 60.5302734,16.4404297 Z M64.5610352,31.0083008 C64.5610352,28.1518412 65.0688426,25.5704868 66.0844727,23.2641602 C67.1001027,20.9578335 68.4542559,19.0905833 70.1469727,17.6623535 C71.8396895,16.2341237 73.733388,15.139164 75.828125,14.3774414 C77.922862,13.6157188 80.1127815,13.2348633 82.3979492,13.2348633 C84.6619579,13.2348633 86.8412981,13.6157188 88.9360352,14.3774414 C91.0307722,15.139164 92.919181,16.2341237 94.6013184,17.6623535 C96.2834557,19.0905833 97.6323191,20.9578335 98.6479492,23.2641602 C99.6635793,25.5704868 100.171387,28.1518412 100.171387,31.0083008 C100.171387,33.8647604 99.6635793,36.4514044 98.6479492,38.7683105 C97.6323191,41.0852167 96.2834557,42.9630462 94.6013184,44.4018555 C92.919181,45.8406647 91.0307722,46.9409142 88.9360352,47.7026367 C86.8412981,48.4643593 84.6619579,48.8452148 82.3979492,48.8452148 C80.1127815,48.8452148 77.922862,48.4643593 75.828125,47.7026367 C73.733388,46.9409142 71.8396895,45.8406647 70.1469727,44.4018555 C68.4542559,42.9630462 67.1001027,41.0852167 66.0844727,38.7683105 C65.0688426,36.4514044 64.5610352,33.8647604 64.5610352,31.0083008 Z M71.987793,31.0083008 C71.987793,34.9015494 73.0139871,37.9431043 75.0664062,40.1330566 C77.1188254,42.323009 79.5414899,43.4179688 82.3344727,43.4179688 C83.6674871,43.4179688 84.947585,43.1534857 86.1748047,42.6245117 C87.4020244,42.0955377 88.5075634,41.3285369 89.4914551,40.3234863 C90.4753467,39.3184357 91.2635062,38.0118896 91.855957,36.4038086 C92.4484079,34.7957276 92.7446289,32.997243 92.7446289,31.0083008 C92.7446289,29.0193585 92.4484079,27.2208739 91.855957,25.612793 C91.2635062,24.004712 90.4753467,22.7034555 89.4914551,21.7089844 C88.5075634,20.7145133 87.4020244,19.9528021 86.1748047,19.4238281 C84.947585,18.8948541 83.6674871,18.6303711 82.3344727,18.6303711 C79.5414899,18.6303711 77.1188254,19.7200412 75.0664062,21.8994141 C73.0139871,24.0787869 71.987793,27.1150521 71.987793,31.0083008 Z" id="Co" sketch:type="MSShapeGroup"></path>
            </g>
        </g>
    </g>
</svg>