<?xml version="1.0" encoding="UTF-8" standalone="no"?>
<svg width="140px" height="140px" viewBox="0 0 140 140" version="1.1" xmlns="http://www.w3.org/2000/svg" xmlns:xlink="http://www.w3.org/1999/xlink" xmlns:sketch="http://www.bohemiancoding.com/sketch/ns">
    <title>futura</title>
    <description>Created with Sketch (http://www.bohemiancoding.com/sketch)</description>
    <defs></defs>
    <g id="Page-1" stroke="none" stroke-width="1" fill="none" fill-rule="evenodd" sketch:type="MSPage">
        <g id="futura-copy" sketch:type="MSLayerGroup" fill="#FFFFFF">
            <g id="Description-+-Fu" transform="translate(9.000000, 35.000000)">
                <text id="Description" sketch:type="MSTextLayer" font-family="Helvetica Neue" font-size="13" font-weight="normal" sketch:alignment="middle">
                    <tspan x="35.4875" y="68">FUTURA</tspan>
                </text>
                <path d="M30,0 L30,47.1646341 L36.2754065,47.1646341 L36.2754065,25.5640244 L57.9420732,25.5640244 L57.9420732,20.2794715 L36.2754065,20.2794715 L36.2754065,5.28455285 L60.9806911,5.28455285 L60.9806911,0 L30,0 Z M94.4715447,47.1646341 L94.4715447,13.0132114 L88.8567073,13.0132114 L88.8567073,32.3018293 C88.8567073,33.8431649 88.6475292,35.2633743 88.2291667,36.5625 C87.8108041,37.8616257 87.1832698,38.9955914 86.3465447,39.9644309 C85.5098197,40.9332704 84.463929,41.6819079 83.2088415,42.2103659 C81.9537539,42.7388238 80.4674883,43.0030488 78.75,43.0030488 C76.5921301,43.0030488 74.8966864,42.3865238 73.6636179,41.1534553 C72.4305494,39.9203868 71.8140244,38.2469618 71.8140244,36.1331301 L71.8140244,13.0132114 L66.199187,13.0132114 L66.199187,35.472561 C66.199187,37.3221637 66.3863464,39.0065981 66.7606707,40.5259146 C67.1349951,42.0452312 67.7845482,43.3553468 68.7093496,44.4563008 C69.634151,45.5572548 70.8451822,46.4049767 72.3424797,46.9994919 C73.8397771,47.594007 75.7113709,47.8912602 77.9573171,47.8912602 C80.4674922,47.8912602 82.6473485,47.3958383 84.4969512,46.4049797 C86.346554,45.4141211 87.8658477,43.8617992 89.054878,41.7479675 L89.1869919,41.7479675 L89.1869919,47.1646341 L94.4715447,47.1646341 Z" id="Fu" sketch:type="MSShapeGroup"></path>
            </g>
        </g>
    </g>
</svg>