<?xml version="1.0" encoding="UTF-8" standalone="no"?>
<svg width="140px" height="140px" viewBox="0 0 140 140" version="1.1" xmlns="http://www.w3.org/2000/svg" xmlns:xlink="http://www.w3.org/1999/xlink" xmlns:sketch="http://www.bohemiancoding.com/sketch/ns">
    <title>miso</title>
    <description>Created with Sketch (http://www.bohemiancoding.com/sketch)</description>
    <defs></defs>
    <g id="Page-1" stroke="none" stroke-width="1" fill="none" fill-rule="evenodd" sketch:type="MSPage">
        <g id="miso-copy" sketch:type="MSLayerGroup" fill="#FFFFFF">
            <g id="Description-+-Mi" transform="translate(9.000000, 35.000000)">
                <text id="Description" sketch:type="MSTextLayer" font-family="Helvetica Neue" font-size="13" font-weight="normal" sketch:alignment="middle">
                    <tspan x="44.503" y="68">MISO</tspan>
                </text>
                <path d="M42.4,48.276686 C43.675,48.276686 44.8,47.301686 44.8,45.876686 L44.8,13.101686 C46.525,16.926686 48.4,20.826686 49.825,23.826686 C50.65,25.551686 51.475,27.276686 52.225,28.926686 C52.6,29.826686 53.35,30.276686 54.4,30.276686 C55.375,30.276686 56.05,29.826686 56.575,28.926686 C57.325,27.276686 58.15,25.551686 58.975,23.826686 C60.4,20.826686 62.2,16.926686 64,13.101686 L64,45.876686 C64,47.301686 64.975,48.276686 66.4,48.276686 C67.675,48.276686 68.8,47.301686 68.8,45.876686 L68.8,2.376686 C68.8,1.251686 68.05,0.276686004 66.925,0.0516860037 C65.8,-0.173313996 64.75,0.351686004 64.225,1.326686 C62.95,4.101686 61.675,6.801686 60.4,9.426686 C58.225,13.851686 55.825,19.176686 54.4,22.251686 C52.9,19.176686 50.5,13.926686 48.4,9.426686 C47.125,6.801686 45.85,4.101686 44.575,1.326686 C44.05,0.351686004 43,-0.173313996 41.875,0.0516860037 C40.75,0.276686004 40,1.251686 40,2.376686 L40,45.876686 C40,47.301686 40.975,48.276686 42.4,48.276686 Z M81.4,7.626686 C83.125,7.626686 84.4,6.351686 84.4,4.626686 C84.4,2.901686 83.125,1.626686 81.4,1.626686 C79.675,1.626686 78.4,2.901686 78.4,4.626686 C78.4,6.351686 79.675,7.626686 81.4,7.626686 Z M83.65,45.876686 L83.65,15.876686 C83.65,14.601686 82.675,13.626686 81.4,13.626686 C80.2,13.626686 79.15,14.601686 79.15,15.876686 L79.15,45.876686 C79.15,47.151686 80.2,48.126686 81.4,48.126686 C82.675,48.126686 83.65,47.151686 83.65,45.876686 Z" id="Mi" sketch:type="MSShapeGroup"></path>
            </g>
        </g>
    </g>
</svg>