<?xml version="1.0" encoding="UTF-8" standalone="no"?>
<svg width="140px" height="140px" viewBox="0 0 140 140" version="1.1" xmlns="http://www.w3.org/2000/svg" xmlns:xlink="http://www.w3.org/1999/xlink" xmlns:sketch="http://www.bohemiancoding.com/sketch/ns">
    <title>opensans</title>
    <description>Created with Sketch (http://www.bohemiancoding.com/sketch)</description>
    <defs></defs>
    <g id="Page-1" stroke="none" stroke-width="1" fill="none" fill-rule="evenodd" sketch:type="MSPage">
        <g id="opensans-copy" sketch:type="MSLayerGroup" fill="#FFFFFF">
            <g id="Description-+-Os" transform="translate(9.000000, 35.000000)">
                <text id="Description" sketch:type="MSTextLayer" font-family="Helvetica Neue" font-size="13" font-weight="normal" sketch:alignment="middle">
                    <tspan x="24.0475" y="68">OPEN SANS</tspan>
                </text>
                <path d="M69.6879883,23.8671875 C69.6879883,31.2939824 67.8101588,37.1337678 64.0544434,41.3867188 C60.298728,45.6396697 55.0778329,47.7661133 48.3916016,47.7661133 C41.5572575,47.7661133 36.2834658,45.6766973 32.5700684,41.4978027 C28.8566709,37.3189081 27,31.4209365 27,23.8037109 C27,16.2499622 28.8619605,10.3943079 32.5859375,6.23657227 C36.3099145,2.07883663 41.5995751,0 48.4550781,0 C55.1201505,0 60.3251766,2.11586426 64.0703125,6.34765625 C67.8154484,10.5794482 69.6879883,16.4192336 69.6879883,23.8671875 Z M32.7128906,23.8671875 C32.7128906,30.1513986 34.0511748,34.9173828 36.7277832,38.1652832 C39.4043916,41.4131836 43.2922922,43.0371094 48.3916016,43.0371094 C53.5332288,43.0371094 57.4158397,41.4184732 60.0395508,38.1811523 C62.6632618,34.9438315 63.9750977,30.1725576 63.9750977,23.8671875 C63.9750977,17.6252943 62.6685515,12.891048 60.0554199,9.66430664 C57.4422884,6.43756525 53.5755464,4.82421875 48.4550781,4.82421875 C43.3134509,4.82421875 39.4043916,6.44814457 36.7277832,9.69604492 C34.0511748,12.9439453 32.7128906,17.6676122 32.7128906,23.8671875 Z M99.6801758,37.6416016 C99.6801758,40.8789224 98.4741332,43.3756423 96.0620117,45.1318359 C93.6498903,46.8880296 90.2645075,47.7661133 85.9057617,47.7661133 C81.2931084,47.7661133 77.6961392,47.0361401 75.1147461,45.5761719 L75.1147461,40.6884766 C76.7863039,41.534835 78.5794989,42.2013322 80.4943848,42.6879883 C82.4092706,43.1746444 84.2553622,43.4179688 86.0327148,43.4179688 C88.7833796,43.4179688 90.8992439,42.9789269 92.3803711,42.1008301 C93.8614983,41.2227332 94.6020508,39.8844491 94.6020508,38.0859375 C94.6020508,36.7317641 94.0148984,35.5733284 92.8405762,34.6105957 C91.6662539,33.647863 89.3758308,32.510586 85.9692383,31.1987305 C82.7319174,29.9926698 80.430915,28.9400273 79.0661621,28.0407715 C77.7014092,27.1415157 76.6857943,26.1206112 76.0192871,24.9780273 C75.3527799,23.8354435 75.0195312,22.4707111 75.0195312,20.8837891 C75.0195312,18.0484884 76.1726773,15.810962 78.4790039,14.1711426 C80.7853305,12.5313232 83.9485476,11.7114258 87.96875,11.7114258 C91.7138859,11.7114258 95.3743311,12.4731369 98.9501953,13.996582 L97.0776367,18.28125 C93.5864083,16.8424407 90.4231913,16.1230469 87.5878906,16.1230469 C85.0911333,16.1230469 83.2080142,16.5144818 81.9384766,17.2973633 C80.668939,18.0802448 80.0341797,19.1593356 80.0341797,20.534668 C80.0341797,21.4656622 80.2722144,22.2591113 80.748291,22.9150391 C81.2243676,23.5709668 81.9913684,24.1951468 83.0493164,24.7875977 C84.1072644,25.3800485 86.1384941,26.2369736 89.1430664,27.3583984 C93.2690636,28.8606846 96.0567148,30.3735275 97.5061035,31.8969727 C98.9554923,33.4204178 99.6801758,35.3352749 99.6801758,37.6416016 Z" id="Os" sketch:type="MSShapeGroup"></path>
            </g>
        </g>
    </g>
</svg>