<?xml version="1.0" encoding="UTF-8" standalone="no"?>
<svg width="140px" height="140px" viewBox="0 0 140 140" version="1.1" xmlns="http://www.w3.org/2000/svg" xmlns:xlink="http://www.w3.org/1999/xlink" xmlns:sketch="http://www.bohemiancoding.com/sketch/ns">
    <title>oswald</title>
    <description>Created with Sketch (http://www.bohemiancoding.com/sketch)</description>
    <defs></defs>
    <g id="Page-1" stroke="none" stroke-width="1" fill="none" fill-rule="evenodd" sketch:type="MSPage">
        <g id="oswald-copy" sketch:type="MSLayerGroup" fill="#FFFFFF">
            <g id="Description-+-Os" transform="translate(9.000000, 35.000000)">
                <text id="Description" sketch:type="MSTextLayer" font-family="Helvetica Neue" font-size="13" font-weight="normal" sketch:alignment="middle">
                    <tspan x="33.427" y="68">OSWALD</tspan>
                </text>
                <path d="M61.5,33.1396484 C61.5,35.2880967 61.2762067,37.3290919 60.8286133,39.2626953 C60.3810199,41.1962987 59.6290743,42.8881763 58.5727539,44.3383789 C57.5164335,45.7885815 56.1065355,46.9433551 54.3430176,47.8027344 C52.5794996,48.6621137 50.3818491,49.0917969 47.75,49.0917969 C45.9596265,49.0917969 44.3751697,48.8948587 42.996582,48.5009766 C41.6179944,48.1070944 40.422938,47.5610386 39.411377,46.862793 C38.3998159,46.1645473 37.5449254,45.3230844 36.8466797,44.3383789 C36.148434,43.3536735 35.5889507,42.2705137 35.1682129,41.0888672 C34.7474751,39.9072207 34.447592,38.6450262 34.2685547,37.3022461 C34.0895173,35.9594659 34,34.5719473 34,33.1396484 L34,15.9521484 C34,14.5198496 34.0895173,13.1323309 34.2685547,11.7895508 C34.447592,10.4467706 34.7474751,9.18457622 35.1682129,8.00292969 C35.5889507,6.82128315 36.148434,5.73812341 36.8466797,4.75341797 C37.5449254,3.76871252 38.3998159,2.92724958 39.411377,2.22900391 C40.422938,1.53075823 41.6179944,0.98470249 42.996582,0.590820312 C44.3751697,0.196938135 45.9596265,0 47.75,0 C50.3818491,0 52.5794996,0.429683203 54.3430176,1.2890625 C56.1065355,2.1484418 57.5164335,3.30321541 58.5727539,4.75341797 C59.6290743,6.20362053 60.3810199,7.89549814 60.8286133,9.82910156 C61.2762067,11.762705 61.5,13.8037002 61.5,15.9521484 L61.5,33.1396484 Z M40.875,34.8583984 C40.875,36.1474674 40.9913725,37.3201445 41.2241211,38.3764648 C41.4568697,39.4327852 41.8417942,40.3369103 42.3789062,41.0888672 C42.9160183,41.8408241 43.6232052,42.4226867 44.5004883,42.8344727 C45.3777713,43.2462586 46.4609311,43.4521484 47.75,43.4521484 C49.0390689,43.4521484 50.1222287,43.2462586 50.9995117,42.8344727 C51.8767948,42.4226867 52.5839817,41.8408241 53.1210938,41.0888672 C53.6582058,40.3369103 54.0431303,39.4327852 54.2758789,38.3764648 C54.5086275,37.3201445 54.625,36.1474674 54.625,34.8583984 L54.625,14.2333984 C54.625,12.9443295 54.5086275,11.7716524 54.2758789,10.715332 C54.0431303,9.65901165 53.6582058,8.75488657 53.1210938,8.00292969 C52.5839817,7.2509728 51.8767948,6.66911013 50.9995117,6.25732422 C50.1222287,5.84553831 49.0390689,5.63964844 47.75,5.63964844 C46.4609311,5.63964844 45.3777713,5.84553831 44.5004883,6.25732422 C43.6232052,6.66911013 42.9160183,7.2509728 42.3789062,8.00292969 C41.8417942,8.75488657 41.4568697,9.65901165 41.2241211,10.715332 C40.9913725,11.7716524 40.875,12.9443295 40.875,14.2333984 L40.875,34.8583984 Z M72.8125,38.2958984 C73.1705747,39.2627001 73.6002579,40.1220666 74.1015625,40.8740234 C74.3164073,41.1962907 74.5581041,41.5140772 74.8266602,41.8273926 C75.0952162,42.1407079 75.3906234,42.4182117 75.7128906,42.6599121 C76.0351579,42.9016125 76.3842755,43.0940748 76.7602539,43.2373047 C77.1362323,43.3805346 77.5390604,43.4521484 77.96875,43.4521484 C78.3984396,43.4521484 78.8191711,43.3939622 79.230957,43.2775879 C79.6427429,43.1612136 80.009764,42.9687513 80.3320312,42.7001953 C80.6542985,42.4316393 80.9138988,42.0780458 81.1108398,41.6394043 C81.3077809,41.2007628 81.40625,40.6591829 81.40625,40.0146484 C81.40625,39.370114 81.3167327,38.8016789 81.1376953,38.3093262 C80.958658,37.8169734 80.7617198,37.4007178 80.546875,37.0605469 C80.2962227,36.6666647 80.0097672,36.3264988 79.6875,36.0400391 L72.8125,30.8837891 C71.7024684,30.1139284 70.8072951,29.3664587 70.1269531,28.6413574 C69.4466112,27.9162561 68.9229348,27.2180209 68.5559082,26.5466309 C68.1888816,25.8752408 67.9471848,25.230716 67.8308105,24.6130371 C67.7144363,23.9953582 67.65625,23.400068 67.65625,22.8271484 C67.65625,21.5380795 67.8710916,20.3385472 68.3007812,19.2285156 C68.7304709,18.118484 69.3749957,17.1606486 70.234375,16.3549805 C71.0937543,15.5493124 72.1679623,14.9137393 73.4570312,14.4482422 C74.7461002,13.9827451 76.2499914,13.75 77.96875,13.75 C79.0429741,13.75 80.0142372,13.8798001 80.8825684,14.1394043 C81.7508995,14.3990085 82.5252245,14.7436502 83.2055664,15.1733398 C83.8859083,15.6030295 84.4856745,16.090899 85.0048828,16.6369629 C85.5240911,17.1830268 85.9716778,17.7335584 86.3476562,18.2885742 C87.2249393,19.6313544 87.8694641,21.1441973 88.28125,22.8271484 L83.125,24.5458984 C82.7669253,23.5790967 82.3372421,22.7197303 81.8359375,21.9677734 C81.6210927,21.6455062 81.3793959,21.3321955 81.1108398,21.027832 C80.8422838,20.7234685 80.5468766,20.4504407 80.2246094,20.2087402 C79.9023421,19.9670398 79.5532245,19.7701017 79.1772461,19.6179199 C78.8012677,19.4657382 78.3984396,19.3896484 77.96875,19.3896484 C77.5390604,19.3896484 77.1183289,19.4478347 76.706543,19.564209 C76.2947571,19.6805833 75.927736,19.8730455 75.6054688,20.1416016 C75.2832015,20.4101576 75.0236012,20.7637511 74.8266602,21.2023926 C74.6297191,21.6410341 74.53125,22.182614 74.53125,22.8271484 C74.53125,23.2568381 74.6207673,23.6507144 74.7998047,24.0087891 C74.978842,24.3668638 75.1757802,24.6712227 75.390625,24.921875 C75.6412773,25.2262385 75.9277328,25.4947905 76.25,25.7275391 L83.125,30.8837891 C84.7542399,32.1907617 86.0209102,33.5827563 86.9250488,35.0598145 C87.8291875,36.5368726 88.28125,38.1884674 88.28125,40.0146484 C88.28125,41.3037174 88.0664084,42.5032497 87.6367188,43.6132812 C87.2070291,44.7233128 86.5625043,45.6811483 85.703125,46.4868164 C84.8437457,47.2924845 83.7695377,47.9280576 82.4804688,48.3935547 C81.1913998,48.8590518 79.6875086,49.0917969 77.96875,49.0917969 C76.8945259,49.0917969 75.9232628,48.9619967 75.0549316,48.7023926 C74.1866005,48.4427884 73.4077997,48.1026225 72.7185059,47.6818848 C72.029212,47.261147 71.4294459,46.7777534 70.9191895,46.2316895 C70.408933,45.6856255 69.9658222,45.1261422 69.5898438,44.5532227 C68.7125607,43.2283462 68.0680359,41.7155033 67.65625,40.0146484 L72.8125,38.2958984 Z" id="Os" sketch:type="MSShapeGroup"></path>
            </g>
        </g>
    </g>
</svg>