<?xml version="1.0" encoding="UTF-8" standalone="no"?>
<svg width="140px" height="140px" viewBox="0 0 140 140" version="1.1" xmlns="http://www.w3.org/2000/svg" xmlns:xlink="http://www.w3.org/1999/xlink" xmlns:sketch="http://www.bohemiancoding.com/sketch/ns">
    <title>raleway</title>
    <description>Created with Sketch (http://www.bohemiancoding.com/sketch)</description>
    <defs></defs>
    <g id="Page-1" stroke="none" stroke-width="1" fill="none" fill-rule="evenodd" sketch:type="MSPage">
        <g id="raleway-copy" sketch:type="MSLayerGroup" fill="#FFFFFF">
            <g id="Description-+-Ra" transform="translate(9.000000, 36.000000)">
                <text id="Description" sketch:type="MSTextLayer" font-family="Helvetica Neue" font-size="13" font-weight="normal" sketch:alignment="middle">
                    <tspan x="30.307" y="67">RALEWAY</tspan>
                </text>
                <path d="M27,46.15 L27,0 L46.76,0 C48.7966769,7.10542736e-15 50.6708248,0.422495775 52.3825,1.2675 C54.0941752,2.11250422 55.5674938,3.23915962 56.8025,4.6475 C58.0375062,6.05584037 59.0016632,7.63749122 59.695,9.3925 C60.3883368,11.1475088 60.735,12.9349909 60.735,14.755 C60.735,16.3583413 60.5075023,17.9074925 60.0525,19.4025 C59.5974977,20.8975075 58.9475042,22.2516606 58.1025,23.465 C57.2574958,24.6783394 56.2391726,25.718329 55.0475,26.585 C53.8558274,27.451671 52.5233407,28.079998 51.05,28.47 L62.23,46.15 L55.6,46.15 L45.07,29.575 L32.85,29.575 L32.85,46.15 L27,46.15 Z M32.85,24.375 L46.825,24.375 C48.0383394,24.375 49.1324951,24.1150026 50.1075,23.595 C51.0825049,23.0749974 51.9166632,22.3708378 52.61,21.4825 C53.3033368,20.5941622 53.8449981,19.5650058 54.235,18.395 C54.6250019,17.2249941 54.82,16.0116729 54.82,14.755 C54.82,13.4549935 54.5925023,12.2308391 54.1375,11.0825 C53.6824977,9.93416092 53.0758371,8.91583777 52.3175,8.0275 C51.5591629,7.13916222 50.6708384,6.44583582 49.6525,5.9475 C48.6341616,5.44916417 47.5616723,5.2 46.435,5.2 L32.85,5.2 L32.85,24.375 Z M78.285,46.8 C76.5949916,46.8 75.0350071,46.5291694 73.605,45.9875 C72.1749928,45.4458306 70.9400052,44.7091713 69.9,43.7775 C68.8599948,42.8458287 68.0475029,41.7408397 67.4625,40.4625 C66.8774971,39.1841603 66.585,37.8300071 66.585,36.4 C66.585,34.7966587 66.9316632,33.3341733 67.625,32.0125 C68.3183368,30.6908267 69.3041603,29.5641713 70.5825,28.6325 C71.8608397,27.7008287 73.3774912,26.9858358 75.1325,26.4875 C76.8875088,25.9891642 78.8049896,25.74 80.885,25.74 C82.5316749,25.74 84.1999915,25.8916652 85.89,26.195 C87.5800085,26.4983348 89.0749935,26.9099974 90.375,27.43 L90.375,24.7 C90.375,21.9266528 89.5950078,19.7491746 88.035,18.1675 C86.4749922,16.5858254 84.2650143,15.795 81.405,15.795 C77.9816496,15.795 74.3850188,17.1166534 70.615,19.76 L68.73,16.055 C70.940011,14.5816593 73.1283225,13.4766703 75.295,12.74 C77.4616775,12.0033296 79.7149883,11.635 82.055,11.635 C86.388355,11.635 89.8116541,12.8266548 92.325,15.21 C94.8383459,17.5933452 96.095,20.951645 96.095,25.285 L96.095,39.13 C96.095,40.47334 96.7016606,41.1666665 97.915,41.21 L97.915,46.15 C97.4816645,46.2366671 97.070002,46.3016664 96.68,46.345 C96.2899981,46.3883335 95.9216684,46.41 95.575,46.41 C94.6216619,46.41 93.6900045,46.1500026 92.78,45.63 C91.8699955,45.1099974 91.3716671,44.2216729 91.285,42.965 L91.155,40.56 C90.3749961,41.6000052 89.4866716,42.5099961 88.49,43.29 C87.4933283,44.0700039 86.4316723,44.7199974 85.305,45.24 C84.1783277,45.7600026 83.0191726,46.1499987 81.8275,46.41 C80.6358274,46.6700013 79.4550058,46.8 78.285,46.8 Z M79.715,42.51 C81.5350091,42.51 83.311658,42.1200039 85.045,41.34 C86.778342,40.5599961 88.1433283,39.6066723 89.14,38.48 C89.9633375,37.5266619 90.375,36.6383375 90.375,35.815 L90.375,30.81 C89.03166,30.2899974 87.6125075,29.8891681 86.1175,29.6075 C84.6224925,29.3258319 83.1816736,29.185 81.795,29.185 C78.8483186,29.185 76.4866756,29.7808274 74.71,30.9725 C72.9333245,32.1641726 72.045,33.7999896 72.045,35.88 C72.045,36.746671 72.2183316,37.5808293 72.565,38.3825 C72.9116684,39.1841707 73.4099968,39.8883303 74.06,40.495 C74.7100032,41.1016697 75.5116619,41.5891648 76.465,41.9575 C77.4183381,42.3258352 78.5016606,42.51 79.715,42.51 Z" id="Ra" sketch:type="MSShapeGroup"></path>
            </g>
        </g>
    </g>
</svg>