<?xml version="1.0" standalone="no"?>
<!DOCTYPE svg PUBLIC "-//W3C//DTD SVG 1.1//EN" "http://www.w3.org/Graphics/SVG/1.1/DTD/svg11.dtd">
<svg width="100%" height="100%" viewBox="0 0 123 17" version="1.1" xmlns="http://www.w3.org/2000/svg" xmlns:xlink="http://www.w3.org/1999/xlink" xml:space="preserve" style="fill-rule:evenodd;clip-rule:evenodd;stroke-linejoin:round;stroke-miterlimit:1.41421;">
    <g transform="matrix(0.402991,0,0,0.402991,-516.805,-472.235)">
        <g id="Layer1">
            <g>
                <g>
                    <g>
                        <g transform="matrix(1,0,0,1,477.847,-2466.06)">
                            <rect x="851.035" y="3639.4" width="6.617" height="39.211" style="fill:rgb(246,246,246);fill-rule:nonzero;"/>
                            <path d="M960.78,3642.9C963.487,3645.23 964.841,3648.53 964.841,3652.8C964.841,3657.24 963.487,3660.69 960.78,3663.13C958.073,3665.58 954.259,3666.8 949.337,3666.8L940.314,3666.8L940.314,3678.61L933.696,3678.61L933.696,3639.4L949.337,3639.4C954.259,3639.4 958.073,3640.56 960.78,3642.9ZM940.314,3660.86L949.064,3660.86C952.126,3660.86 954.468,3660.2 956.091,3658.87C957.713,3657.54 958.524,3655.57 958.524,3652.96C958.524,3650.43 957.713,3648.52 956.091,3647.24C954.468,3645.97 952.126,3645.33 949.064,3645.33L940.314,3645.33L940.314,3660.86Z" style="fill:rgb(246,246,246);fill-rule:nonzero;"/>
                            <g transform="matrix(0.685085,1.39964e-33,1.55399e-33,0.685085,332.316,1146.05)">
                                <path d="M1115.1,3645.33L1115.1,3678.61L1108.48,3678.61L1108.48,3645.33L1096.09,3645.33L1096.09,3639.4L1127.51,3639.4L1127.51,3645.33L1115.1,3645.33Z" style="fill:rgb(246,246,246);fill-rule:nonzero;"/>
                            </g>
                        </g>
                        <g transform="matrix(8.61231,0,-0.176306,0.999883,-6292.98,-3454.26)">
                            <path d="M1010.36,4661.42L1004.13,4661.42L1003.78,4667.36L1010.01,4667.36L1010.36,4661.42Z" style="fill:rgb(246,246,246);"/>
                        </g>
                        <g transform="matrix(1,0,0,1,-1085.14,684.895)">
                            <path d="M2560.85,527.655L2541.35,527.655L2541.35,488.444L2547.97,488.444L2547.97,521.667L2564.93,521.667L2560.85,527.655Z" style="fill:rgb(246,246,246);"/>
                        </g>
                        <g transform="matrix(1,0,0,1,-1085.14,765.776)">
                            <path d="M2455.49,440.611L2444.14,417.489L2444.14,446.774L2437.91,446.774L2437.91,407.563L2445.76,407.563L2458.69,433.621L2471.57,407.563L2479.36,407.563L2479.36,446.774L2473.26,446.774L2473.21,417.489L2461.84,440.611L2455.49,440.611Z" style="fill:rgb(246,246,246);"/>
                        </g>
                        <g transform="matrix(1,0,0,1,-860,175.751)">
                            <path d="M2374.5,1020.07L2359.7,1020.07L2359.7,1030.87L2381.68,1030.87L2377.63,1036.8L2353.08,1036.8L2353.08,997.589L2381.61,997.589L2377.57,1003.52L2359.7,1003.52L2359.7,1014.13L2374.5,1014.13L2374.5,1020.07Z" style="fill:rgb(246,246,246);"/>
                        </g>
                        <g transform="matrix(1,0,0,1,-860,78.8205)">
                            <path d="M2170.04,1103.58C2168.32,1102.61 2166.61,1101.87 2164.9,1101.36C2162.89,1100.75 2161.08,1100.45 2159.47,1100.45C2157.49,1100.45 2155.93,1100.81 2154.8,1101.52C2153.67,1102.23 2153.1,1103.24 2153.1,1104.55C2153.1,1105.7 2153.47,1106.67 2154.21,1107.45C2154.95,1108.24 2155.88,1108.87 2157,1109.34C2158.12,1109.81 2159.69,1110.34 2161.72,1110.92C2164.36,1111.71 2166.51,1112.48 2168.18,1113.25C2169.85,1114.02 2171.27,1115.15 2172.45,1116.67C2173.62,1118.18 2174.21,1120.15 2174.21,1122.57C2174.21,1124.85 2173.58,1126.85 2172.32,1128.58C2171.07,1130.3 2169.32,1131.62 2167.09,1132.55C2164.86,1133.48 2162.3,1133.95 2159.42,1133.95C2156.43,1133.95 2153.53,1133.39 2150.74,1132.27C2147.95,1131.15 2145.51,1129.65 2143.42,1127.76L2146.93,1122.61C2148.73,1124.15 2150.69,1125.37 2152.79,1126.25C2155.15,1127.25 2157.39,1127.74 2159.53,1127.74C2161.84,1127.74 2163.64,1127.32 2164.93,1126.48C2166.21,1125.64 2166.86,1124.48 2166.86,1122.98C2166.86,1121.78 2166.47,1120.79 2165.71,1120C2164.94,1119.22 2163.99,1118.6 2162.85,1118.16C2161.71,1117.71 2160.14,1117.19 2158.13,1116.59C2155.45,1115.8 2153.3,1115.04 2151.67,1114.29C2150.03,1113.54 2148.63,1112.44 2147.46,1110.99C2146.28,1109.54 2145.69,1107.61 2145.69,1105.18C2145.69,1102.98 2146.29,1101.05 2147.48,1099.4C2148.68,1097.75 2150.35,1096.48 2152.5,1095.59C2154.65,1094.69 2157.14,1094.25 2159.97,1094.25C2162.48,1094.25 2164.93,1094.61 2167.32,1095.34C2169.69,1096.06 2171.8,1097.04 2173.66,1098.27L2170.04,1103.58Z" style="fill:rgb(246,246,246);"/>
                        </g>
                        <g transform="matrix(0.685085,0,0,0.685085,64.7298,423.47)">
                            <path d="M2170.04,1103.58C2168.32,1102.61 2166.61,1101.87 2164.9,1101.36C2162.89,1100.75 2161.08,1100.45 2159.47,1100.45C2157.49,1100.45 2155.93,1100.81 2154.8,1101.52C2153.67,1102.23 2153.1,1103.24 2153.1,1104.55C2153.1,1105.7 2153.47,1106.67 2154.21,1107.45C2154.95,1108.24 2155.88,1108.87 2157,1109.34C2158.12,1109.81 2159.69,1110.34 2161.72,1110.92C2164.36,1111.71 2166.51,1112.48 2168.18,1113.25C2169.85,1114.02 2171.27,1115.15 2172.45,1116.67C2173.62,1118.18 2174.21,1120.15 2174.21,1122.57C2174.21,1124.85 2173.58,1126.85 2172.32,1128.58C2171.07,1130.3 2169.32,1131.62 2167.09,1132.55C2164.86,1133.48 2162.3,1133.95 2159.42,1133.95C2156.43,1133.95 2153.53,1133.39 2150.74,1132.27C2147.95,1131.15 2145.51,1129.65 2143.42,1127.76L2146.93,1122.61C2148.73,1124.15 2150.69,1125.37 2152.79,1126.25C2155.15,1127.25 2157.39,1127.74 2159.53,1127.74C2161.84,1127.74 2163.64,1127.32 2164.93,1126.48C2166.21,1125.64 2166.86,1124.48 2166.86,1122.98C2166.86,1121.78 2166.47,1120.79 2165.71,1120C2164.94,1119.22 2163.99,1118.6 2162.85,1118.16C2161.71,1117.71 2160.14,1117.19 2158.13,1116.59C2155.45,1115.8 2153.3,1115.04 2151.67,1114.29C2150.03,1113.54 2148.63,1112.44 2147.46,1110.99C2146.28,1109.54 2145.69,1107.61 2145.69,1105.18C2145.69,1102.98 2146.29,1101.05 2147.48,1099.4C2148.68,1097.75 2150.35,1096.48 2152.5,1095.59C2154.65,1094.69 2157.14,1094.25 2159.97,1094.25C2162.48,1094.25 2164.93,1094.61 2167.32,1095.34C2169.69,1096.06 2171.8,1097.04 2173.66,1098.27L2170.04,1103.58Z" style="fill:rgb(246,246,246);"/>
                        </g>
                    </g>
                </g>
            </g>
        </g>
    </g>
</svg>
