<?xml version="1.0" encoding="UTF-8"?>
<svg width="16px" height="9px" viewBox="0 0 16 9" version="1.1" xmlns="http://www.w3.org/2000/svg" xmlns:xlink="http://www.w3.org/1999/xlink">
    <!-- Generator: Sketch 47.1 (45422) - http://www.bohemiancoding.com/sketch -->
    <title>us-flag-04</title>
    <desc>Created with Sketch.</desc>
    <defs></defs>
    <g id="Page-1" stroke="none" stroke-width="1" fill="none" fill-rule="evenodd">
        <g id="us-flag-04">
            <rect id="container" fill="#FFFFFF" x="0" y="0" width="16" height="9"></rect>
            <g id="stripes" fill="#CC0000">
                <rect id="Rectangle" x="0" y="0" width="16" height="1"></rect>
                <rect id="Rectangle-Copy-4" x="0" y="4" width="16" height="1"></rect>
                <rect id="Rectangle-Copy-2" x="0" y="2" width="16" height="1"></rect>
                <rect id="Rectangle-Copy-10" x="0" y="8" width="16" height="1"></rect>
                <rect id="Rectangle-Copy-5" x="0" y="6" width="16" height="1"></rect>
            </g>
            <g id="stars">
                <rect id="field" fill="#000094" x="0" y="0" width="9" height="5"></rect>
                <rect id="Rectangle-3" fill="#FFFFFF" x="1" y="1" width="1" height="1"></rect>
                <rect id="Rectangle-3-Copy" fill="#FFFFFF" x="3" y="1" width="1" height="1"></rect>
                <rect id="Rectangle-3-Copy-2" fill="#FFFFFF" x="5" y="1" width="1" height="1"></rect>
                <rect id="Rectangle-3-Copy-9" fill="#FFFFFF" x="7" y="1" width="1" height="1"></rect>
                <rect id="Rectangle-3-Copy-10" fill="#FFFFFF" x="7" y="3" width="1" height="1"></rect>
                <rect id="Rectangle-3-Copy-5" fill="#FFFFFF" x="1" y="3" width="1" height="1"></rect>
                <rect id="Rectangle-3-Copy-6" fill="#FFFFFF" x="3" y="3" width="1" height="1"></rect>
                <rect id="Rectangle-3-Copy-7" fill="#FFFFFF" x="5" y="3" width="1" height="1"></rect>
            </g>
        </g>
    </g>
</svg>