<?xml version="1.0" encoding="UTF-8" standalone="no"?>
<svg width="140px" height="140px" viewBox="0 0 140 140" version="1.1" xmlns="http://www.w3.org/2000/svg" xmlns:xlink="http://www.w3.org/1999/xlink" xmlns:sketch="http://www.bohemiancoding.com/sketch/ns">
    <title>droidsans</title>
    <description>Created with Sketch (http://www.bohemiancoding.com/sketch)</description>
    <defs></defs>
    <g id="Page-1" stroke="none" stroke-width="1" fill="none" fill-rule="evenodd" sketch:type="MSPage">
        <g id="droidsans-copy" sketch:type="MSLayerGroup" fill="#FFFFFF">
            <g id="Description-+-Dr" transform="translate(9.000000, 35.000000)">
                <text id="Description" sketch:type="MSTextLayer" font-family="Helvetica Neue" font-size="13" font-weight="normal" sketch:alignment="middle">
                    <tspan x="21.636" y="68">DROID SANS</tspan>
                </text>
                <path d="M68.7080078,23.1064453 C68.7080078,27.0810746 68.192388,30.5668795 67.1611328,33.5639648 C66.1298777,36.5610501 64.6367285,39.0639548 62.6816406,41.0727539 C60.7265527,43.081553 58.3256978,44.5908153 55.4790039,45.6005859 C52.63231,46.6103566 49.4043149,47.1152344 45.7949219,47.1152344 L34,47.1152344 L34,0 L47.1162109,0 C50.4033367,0 53.3788929,0.494135684 56.0429688,1.48242188 C58.7070446,2.47070807 60.9736235,3.937002 62.8427734,5.88134766 C64.7119234,7.82569332 66.1567332,10.2372903 67.1772461,13.1162109 C68.197759,15.9951316 68.7080078,19.3251764 68.7080078,23.1064453 Z M62.359375,23.2998047 C62.359375,20.1630703 62.0048864,17.450695 61.2958984,15.1625977 C60.5869105,12.8745003 59.5556708,10.9892652 58.2021484,9.50683594 C56.848626,8.02440665 55.1836036,6.92334344 53.2070312,6.20361328 C51.2304589,5.48388312 48.9853641,5.12402344 46.4716797,5.12402344 L39.9941406,5.12402344 L39.9941406,41.9589844 L45.2148438,41.9589844 C50.8867471,41.9589844 55.162095,40.3906407 58.0410156,37.2539062 C60.9199363,34.1171718 62.359375,29.4658511 62.359375,23.2998047 Z M91.6513672,11.0859375 C92.2744172,11.0859375 92.9726524,11.1127927 93.7460938,11.1665039 C94.5195351,11.2202151 95.1855441,11.3007807 95.7441406,11.4082031 L94.9707031,16.8222656 C94.3691376,16.7148432 93.751468,16.6235355 93.1176758,16.5483398 C92.4838835,16.4731442 91.8876981,16.4355469 91.3291016,16.4355469 C89.9755792,16.4355469 88.74024,16.7094699 87.6230469,17.2573242 C86.5058538,17.8051785 85.5444376,18.5893504 84.7387695,19.6098633 C83.9331014,20.6303762 83.3100608,21.8549733 82.8696289,23.2836914 C82.429197,24.7124095 82.2089844,26.2968663 82.2089844,28.0371094 L82.2089844,47.1152344 L76.34375,47.1152344 L76.34375,11.7304688 L81.1132812,11.7304688 L81.8222656,18.2080078 L82.0800781,18.2080078 C82.6171902,17.2841751 83.1918915,16.3925824 83.8041992,15.5332031 C84.416507,14.6738238 85.1040001,13.9165072 85.8666992,13.2612305 C86.6293983,12.6059538 87.4833937,12.0795918 88.4287109,11.6821289 C89.3740282,11.284666 90.4482362,11.0859375 91.6513672,11.0859375 Z" id="Dr" sketch:type="MSShapeGroup"></path>
            </g>
        </g>
    </g>
</svg>