<?xml version="1.0" encoding="UTF-8" standalone="no"?>
<svg width="140px" height="140px" viewBox="0 0 140 140" version="1.1" xmlns="http://www.w3.org/2000/svg" xmlns:xlink="http://www.w3.org/1999/xlink" xmlns:sketch="http://www.bohemiancoding.com/sketch/ns">
    <title>georgia</title>
    <description>Created with Sketch (http://www.bohemiancoding.com/sketch)</description>
    <defs></defs>
    <g id="Page-1" stroke="none" stroke-width="1" fill="none" fill-rule="evenodd" sketch:type="MSPage">
        <g id="georgia-copy" sketch:type="MSLayerGroup" fill="#FFFFFF">
            <g id="Description-+-Ge" transform="translate(9.000000, 35.000000)">
                <text id="Description" sketch:type="MSTextLayer" font-family="Helvetica Neue" font-size="13" font-weight="normal" sketch:alignment="middle">
                    <tspan x="31.8735" y="68">GEORGIA</tspan>
                </text>
                <path d="M43.9956055,47.1313477 C41.4565303,47.1313477 39.0973416,46.7293334 36.9179688,45.925293 C34.7385959,45.1212525 32.834318,43.9363685 31.2050781,42.3706055 C29.5758382,40.8048424 28.30103,38.9005646 27.3806152,36.6577148 C26.4602005,34.4148651 26,31.84409 26,28.9453125 C26,24.8616332 26.7141042,21.0689465 28.142334,17.5671387 C29.5705638,14.0653308 31.5224486,11.0026173 33.9980469,8.37890625 C36.4313273,5.77635417 39.3089027,3.72925551 42.6308594,2.23754883 C45.9528161,0.745842151 49.4545714,0 53.1362305,0 C56.0561669,0 58.5581764,0.333248621 60.642334,0.999755859 C62.7264915,1.6662631 64.3609967,2.40152593 65.5458984,3.20556641 L67.3232422,1.04736328 L69.8623047,1.04736328 L66.5297852,16.7895508 L63.9272461,16.7895508 C63.8849282,15.0333571 63.7368177,13.3089277 63.4829102,11.6162109 C63.2290026,9.92349414 62.7000366,8.40007187 61.8959961,7.04589844 C61.0707967,5.67056604 59.9388093,4.58089595 58.5,3.77685547 C57.0611907,2.97281499 55.0511197,2.57080078 52.4697266,2.57080078 C49.8671745,2.57080078 47.4074823,3.24258768 45.0905762,4.58618164 C42.7736701,5.9297756 40.7371507,7.81818445 38.980957,10.2514648 C37.2670813,12.6001094 35.9182178,15.4247882 34.9343262,18.7255859 C33.9504345,22.0263837 33.4584961,25.559877 33.4584961,29.3261719 C33.4584961,34.023461 34.5693248,37.7262234 36.7910156,40.4345703 C39.0127064,43.1429172 42.0807096,44.4970703 45.9951172,44.4970703 C47.8571057,44.4970703 49.4757418,44.222008 50.8510742,43.671875 C52.2264066,43.121742 53.3160767,42.5081414 54.1201172,41.8310547 C54.4163426,40.9635373 54.6966946,40.048426 54.9611816,39.0856934 C55.2256686,38.1229607 55.5166,36.9433664 55.8339844,35.546875 L56.4370117,32.8173828 C56.4793296,32.5846343 56.5269366,32.3095719 56.579834,31.9921875 C56.6327314,31.6748031 56.6591797,31.3785821 56.6591797,31.1035156 C56.6591797,30.5745416 56.5904141,30.1407895 56.4528809,29.8022461 C56.3153476,29.4637027 55.982099,29.1780611 55.453125,28.9453125 C54.8395152,28.6279281 53.9455625,28.3898934 52.7712402,28.2312012 C51.596918,28.072509 50.692386,27.9720054 50.0576172,27.9296875 L50.5336914,25.7714844 L70.3066406,25.7714844 L69.8305664,27.9296875 C69.2804334,27.9931644 68.5663293,28.0936679 67.6882324,28.2312012 C66.8101356,28.3687344 66.0748728,28.5644519 65.4824219,28.8183594 C64.7206993,29.1569027 64.1547056,29.6118135 63.7844238,30.1831055 C63.414142,30.7543974 63.13379,31.431474 62.9433594,32.2143555 L62.1181641,35.8642578 C61.631508,37.874359 61.2929697,39.3766226 61.1025391,40.3710938 C60.9121084,41.3655649 60.7428393,42.3071245 60.5947266,43.1958008 C59.1982352,43.7670927 57.955165,44.2643208 56.8654785,44.6875 C55.7757921,45.1106792 54.4163493,45.5232727 52.7871094,45.925293 C51.3059822,46.3061542 49.8830635,46.6023752 48.5183105,46.8139648 C47.1535576,47.0255544 45.6460043,47.1313477 43.9956055,47.1313477 Z M99.347168,20.6616211 C99.347168,22.9044708 98.6436431,24.8299073 97.2365723,26.4379883 C95.8295014,28.0460692 93.7824028,29.3261671 91.0952148,30.2783203 C89.1274316,30.997725 87.1385192,31.5795876 85.128418,32.0239258 C83.1183168,32.4682639 80.8966593,32.8385402 78.4633789,33.1347656 C78.4633789,36.4778813 79.0822692,39.0327874 80.3200684,40.7995605 C81.5578675,42.5663337 83.3722211,43.449707 85.7631836,43.449707 C87.8790796,43.449707 89.7463298,42.920741 91.3649902,41.862793 C92.9836507,40.804845 94.5758385,39.2285261 96.1416016,37.1337891 L97.9506836,38.4667969 C96.2579668,41.04819 94.1421025,43.1111576 91.6030273,44.6557617 C89.0639521,46.2003658 86.4297011,46.9726562 83.7001953,46.9726562 C79.9550594,46.9726562 77.093353,45.9253034 75.1149902,43.8305664 C73.1366275,41.7358294 72.1474609,38.7630401 72.1474609,34.9121094 C72.1474609,32.2460804 72.5653441,29.7017536 73.401123,27.2790527 C74.236902,24.8563518 75.4588136,22.639984 77.0668945,20.6298828 C78.6326576,18.6620995 80.5528044,17.0752013 82.8273926,15.8691406 C85.1019808,14.6630799 87.6145696,14.0600586 90.3652344,14.0600586 C93.4121246,14.0600586 95.6708097,14.6789489 97.1413574,15.916748 C98.6119051,17.1545472 99.347168,18.7361557 99.347168,20.6616211 Z M93.5073242,19.8681641 C93.5073242,19.0429646 93.3909517,18.3923364 93.1582031,17.9162598 C92.9254546,17.4401832 92.6292336,17.0857759 92.2695312,16.8530273 C91.88867,16.5991198 91.4866558,16.44043 91.0634766,16.3769531 C90.6402974,16.3134762 90.2065452,16.2817383 89.762207,16.2817383 C87.2231318,16.2817383 84.8798122,17.6782087 82.7321777,20.4711914 C80.5845433,23.2641741 79.2251005,26.7447708 78.6538086,30.9130859 C80.1349358,30.7014963 81.8064686,30.3999857 83.668457,30.0085449 C85.5304455,29.6171042 87.0750264,29.1040071 88.3022461,28.4692383 C90.0584398,27.559403 91.3649859,26.390388 92.2219238,24.9621582 C93.0788617,23.5339284 93.5073242,21.8359473 93.5073242,19.8681641 Z" id="Ge" sketch:type="MSShapeGroup"></path>
            </g>
        </g>
    </g>
</svg>