<?xml version="1.0" encoding="UTF-8" standalone="no"?>
<svg width="140px" height="140px" viewBox="0 0 140 140" version="1.1" xmlns="http://www.w3.org/2000/svg" xmlns:xlink="http://www.w3.org/1999/xlink" xmlns:sketch="http://www.bohemiancoding.com/sketch/ns">
    <title>gilde</title>
    <description>Created with Sketch (http://www.bohemiancoding.com/sketch)</description>
    <defs></defs>
    <g id="Page-1" stroke="none" stroke-width="1" fill="none" fill-rule="evenodd" sketch:type="MSPage">
        <g id="gilde-copy" sketch:type="MSLayerGroup" fill="#FFFFFF">
            <g id="Description-+-Gi" transform="translate(9.000000, 26.000000)">
                <text id="Description" sketch:type="MSTextLayer" font-family="Helvetica Neue" font-size="13" font-weight="normal" sketch:alignment="middle">
                    <tspan x="42.2215" y="77">GILDE</tspan>
                </text>
                <path d="M74.584,24.96 C74.584,25.7280038 73.8053411,26.3146646 72.248,26.72 C70.6906589,27.1253354 69.7626682,28.4159891 69.464,30.592 L67.992,42.048 C67.3093299,47.38136 66.0080096,51.38132 64.088,54.048 C62.1679904,56.71468 59.3733517,58.048 55.704,58.048 C53.7413235,58.048 51.8106762,57.6320042 49.912,56.8 C48.0133238,55.9679958 47.064,54.7413414 47.064,53.12 C47.064,52.3093293 47.501329,51.466671 48.376,50.592 C49.250671,49.717329 50.221328,49.2373338 51.288,49.152 C51.7573357,49.152 52.0666659,49.2799987 52.216,49.536 C52.3653341,49.7920013 52.44,50.1973306 52.44,50.752 L52.44,52.032 C52.44,52.9706714 52.6853309,53.7279971 53.176,54.304 C53.6666691,54.8800029 54.7013254,55.168 56.28,55.168 C57.7733408,55.168 58.615999,54.4746736 58.808,53.088 C59.000001,51.7013264 59.3519974,48.6826899 59.864,44.032 C56.7066509,45.6106746 53.357351,46.4 49.816,46.4 C44.9946426,46.4 40.6533526,44.8533488 36.792,41.76 C32.9306474,38.6666512 31,33.1307066 31,25.152 C31,17.1306266 33.3893094,10.9333552 38.168,6.56 C42.9466906,2.1866448 47.9813069,0 53.272,0 C55.9600134,0 58.6266534,0.38399616 61.272,1.152 C63.5760115,2.0053376 65.9013216,2.8586624 68.248,3.712 C68.6746688,3.712 69.058665,3.46666912 69.4,2.976 C69.741335,2.48533088 70.1466643,2.24 70.616,2.24 C71.0000019,2.24 71.287999,2.35733216 71.48,2.592 C71.672001,2.82666784 71.768,3.07199872 71.768,3.328 L71.768,16.32 C71.768,17.0880038 71.4266701,17.472 70.744,17.472 C69.9759962,17.472 69.3786688,16.938672 68.952,15.872 C68.5253312,14.805328 67.9066707,13.3333427 67.096,11.456 C66.2853293,9.57865728 64.6640122,7.65867648 62.232,5.696 C59.7999878,3.73332352 57.0906816,2.752 54.104,2.752 C48.9839744,2.752 45.3146778,4.95997792 43.096,9.376 C40.8773222,13.7920221 39.768,18.8586381 39.768,24.576 C39.768,30.7200307 40.8773222,35.2746518 43.096,38.24 C45.3146778,41.2053482 47.2133254,42.7946656 48.792,43.008 C50.3706746,43.2213344 51.3413315,43.3386666 51.704,43.36 C52.0666685,43.3813334 52.418665,43.392 52.76,43.392 C54.2960077,43.392 55.5439952,43.1573357 56.504,42.688 C57.4640048,42.2186643 58.3493293,41.5360045 59.16,40.64 C59.9706707,39.7439955 60.5999978,38.6133402 61.048,37.248 C61.4960022,35.8826598 61.72,34.4746739 61.72,33.024 C61.7626669,32.7679987 61.784,32.5120013 61.784,32.256 L61.784,31.68 C61.784,29.3759885 60.6746778,27.7973376 58.456,26.944 C56.2373222,26.0906624 55.128,25.4080026 55.128,24.896 C55.128,24.4693312 55.2453322,24.1813341 55.48,24.032 C55.7146678,23.8826659 56.0453312,23.808 56.472,23.808 L57.304,23.808 C57.4320006,23.808 58.4346573,23.8506662 60.312,23.936 C62.1893427,24.0213338 64.0666573,24.064 65.944,24.064 C67.2240064,24.064 68.5893261,24.0213338 70.04,23.936 C71.4906739,23.8506662 72.5573299,23.808 73.24,23.808 C74.1360045,23.808 74.584,24.1919962 74.584,24.96 Z M90.072,7.36 C90.072,7.87200256 89.4640061,8.79999328 88.248,10.144 C87.0319939,11.4880067 86.1253363,12.16 85.528,12.16 C84.9733306,12.16 84.2373379,11.4880067 83.32,10.144 C82.4026621,8.79999328 81.944,7.87200256 81.944,7.36 C81.944,6.84799744 82.5519939,5.92000672 83.768,4.576 C84.9840061,3.23199328 85.8906637,2.56 86.488,2.56 C87.0426694,2.56 87.7786621,3.23199328 88.696,4.576 C89.6133379,5.92000672 90.072,6.84799744 90.072,7.36 Z M91.48,38.08 C91.48,39.3173395 90.5306762,41.0133226 88.632,43.168 C86.7333238,45.3226774 84.354681,46.4 81.496,46.4 C80.0026592,46.4 78.989336,45.8880051 78.456,44.864 C77.922664,43.8399949 77.656,42.4533421 77.656,40.704 C77.656,38.8266573 78.0079965,36.0320186 78.712,32.32 C79.4160035,28.6079814 80.0026643,25.5360122 80.472,23.104 C80.472,22.3359962 79.7360074,21.8240013 78.264,21.568 C76.7919926,21.3119987 76.056,20.9066694 76.056,20.352 C76.056,19.5839962 76.6959936,19.2 77.976,19.2 C80.2373446,19.2 82.0613264,19.104001 83.448,18.912 C84.8346736,18.719999 86.2106598,18.4960013 87.576,18.24 C88.1733363,18.24 88.472,18.4319981 88.472,18.816 C87.4906618,23.082688 86.6160038,27.1253142 85.848,30.944 C85.0799962,34.7626858 84.696,37.4613254 84.696,39.04 C84.696,39.7226701 84.8239987,40.2239984 85.08,40.544 C85.3360013,40.8640016 85.6773312,41.024 86.104,41.024 C86.829337,41.024 87.6719952,40.4053395 88.632,39.168 C89.5920048,37.9306605 90.2639981,37.312 90.648,37.312 C91.2026694,37.312 91.48,37.5679974 91.48,38.08 Z" id="Gi" sketch:type="MSShapeGroup"></path>
            </g>
        </g>
    </g>
</svg>