<?xml version="1.0" encoding="UTF-8" standalone="no"?>
<svg width="140px" height="140px" viewBox="0 0 140 140" version="1.1" xmlns="http://www.w3.org/2000/svg" xmlns:xlink="http://www.w3.org/1999/xlink" xmlns:sketch="http://www.bohemiancoding.com/sketch/ns">
    <title>hammersmithone</title>
    <description>Created with Sketch (http://www.bohemiancoding.com/sketch)</description>
    <defs></defs>
    <g id="Page-1" stroke="none" stroke-width="1" fill="none" fill-rule="evenodd" sketch:type="MSPage">
        <g id="hammersmithone-copy" sketch:type="MSLayerGroup" fill="#FFFFFF">
            <g id="Description-+-Ha" transform="translate(6.000000, 36.000000)">
                <text id="Description" sketch:type="MSTextLayer" font-family="Helvetica Neue" font-size="13" font-weight="normal" sketch:alignment="middle">
                    <tspan x="15.867" y="67">HAMMERSMITH</tspan>
                </text>
                <path d="M31,0.102539062 C31.5468777,0.148112207 32.0139955,0.182291553 32.4013672,0.205078125 C32.7887389,0.227864697 33.1362289,0.24495437 33.4438477,0.256347656 C33.7514664,0.267740942 34.0419908,0.2734375 34.3154297,0.2734375 L35.2382812,0.2734375 C36.1497441,0.2734375 36.975745,0.25065127 37.7163086,0.205078125 C38.4568722,0.15950498 39.1233694,0.0911462891 39.7158203,0 L39.7158203,18.2177734 L54.4130859,18.2177734 L54.4130859,0.102539062 C55.5752011,0.170898779 56.4866503,0.21647124 57.1474609,0.239257812 C57.8082715,0.262044385 58.3665342,0.2734375 58.8222656,0.2734375 C59.9843808,0.2734375 60.9641887,0.239258154 61.7617188,0.170898438 C62.5592488,0.102538721 63.0149734,0.0455731445 63.1289062,0 L63.1289062,45.9375 C62.9466137,45.9147134 62.6446961,45.8919272 62.2231445,45.8691406 C61.8015929,45.8463541 61.3059924,45.8235678 60.7363281,45.8007812 C60.1666638,45.7779947 59.5400425,45.760905 58.8564453,45.7495117 C58.1728481,45.7381184 57.4892612,45.7324219 56.8056641,45.7324219 L54.4130859,45.7324219 L54.4130859,26.4208984 L39.7158203,26.4208984 L39.7158203,45.9375 C39.3740217,45.8919269 38.610683,45.8463544 37.4257812,45.8007812 C36.2408795,45.7552081 34.4635535,45.7324219 32.09375,45.7324219 L31,45.7324219 L31,0.102539062 Z M71.8447266,34.3847656 C71.8447266,32.9036384 72.2036097,31.4624094 72.9213867,30.0610352 C73.6391637,28.659661 74.7385994,27.4178114 76.2197266,26.3354492 C77.7008538,25.253087 79.5864143,24.3815137 81.8764648,23.7207031 C84.1665154,23.0598925 86.8723802,22.7294922 89.9941406,22.7294922 C90.1992198,22.7294922 90.4099924,22.7351887 90.6264648,22.746582 C90.8429373,22.7579753 91.065103,22.7636719 91.2929688,22.7636719 L93.0703125,22.9003906 C92.9791662,21.761062 92.7740901,20.8154334 92.4550781,20.0634766 C92.1360661,19.3115197 91.6746449,18.7076846 91.0708008,18.2519531 C90.4669566,17.7962217 89.7264041,17.4772145 88.8491211,17.2949219 C87.9718381,17.1126293 86.9179749,17.0214844 85.6875,17.0214844 C84.7760371,17.0214844 83.8019258,17.1126293 82.7651367,17.2949219 C81.7283477,17.4772145 80.720057,17.727863 79.7402344,18.046875 C78.7604118,18.365887 77.8603557,18.7304667 77.0400391,19.140625 C76.2197225,19.5507833 75.5703149,19.9837217 75.0917969,20.4394531 L74.9892578,20.3710938 L73.9638672,12.5097656 C75.6956467,11.5527296 77.6951384,10.7836943 79.9624023,10.2026367 C82.2296663,9.62157913 84.5709515,9.33105469 86.9863281,9.33105469 C89.4472779,9.33105469 91.5948802,9.64436536 93.4291992,10.2709961 C95.2635183,10.8976268 96.7788026,11.809076 97.9750977,13.0053711 C99.1713927,14.2016661 100.065752,15.6542883 100.658203,17.3632812 C101.250654,19.0722742 101.546875,20.9977106 101.546875,23.1396484 L101.546875,35.5126953 C101.546875,36.9482494 101.774737,38.0875609 102.230469,38.9306641 C102.6862,39.7737672 103.392573,40.4345679 104.349609,40.9130859 L98.1630859,46.5869141 C97.092117,46.0400363 96.2034541,45.2766976 95.4970703,44.296875 C94.129876,44.9576856 92.6886469,45.4475896 91.1733398,45.7666016 C89.6580328,46.0856136 88.1142657,46.2451172 86.5419922,46.2451172 C84.2405484,46.2451172 82.1840911,45.9716824 80.3725586,45.4248047 C78.5610261,44.877927 77.0229555,44.0974986 75.7583008,43.0834961 C74.493646,42.0694936 73.5252312,40.8276441 72.8530273,39.3579102 C72.1808235,37.8881762 71.8447266,36.230478 71.8447266,34.3847656 Z M80.21875,34.1455078 C80.21875,35.5810619 80.8795507,36.7545527 82.2011719,37.6660156 C83.5227931,38.5774785 85.4596227,39.0332031 88.0117188,39.0332031 C89.8574311,39.0332031 91.6119708,38.6686234 93.2753906,37.9394531 C93.2070309,37.255856 93.1728516,36.5494828 93.1728516,35.8203125 L93.1728516,29.5654297 C92.7626933,29.4742834 92.2443065,29.4230144 91.6176758,29.4116211 C90.991045,29.4002278 90.4156927,29.3945312 89.8916016,29.3945312 C88.1370355,29.3945312 86.6445374,29.5369452 85.4140625,29.8217773 C84.1835876,30.1066095 83.1809935,30.4825823 82.40625,30.949707 C81.6315065,31.4168318 81.0732439,31.9295219 80.7314453,32.487793 C80.3896467,33.046064 80.21875,33.5986301 80.21875,34.1455078 Z" id="Ha" sketch:type="MSShapeGroup"></path>
            </g>
        </g>
    </g>
</svg>