<?xml version="1.0" encoding="UTF-8" standalone="no"?>
<svg width="140px" height="140px" viewBox="0 0 140 140" version="1.1" xmlns="http://www.w3.org/2000/svg" xmlns:xlink="http://www.w3.org/1999/xlink" xmlns:sketch="http://www.bohemiancoding.com/sketch/ns">
    <title>helveticaneue</title>
    <description>Created with Sketch (http://www.bohemiancoding.com/sketch)</description>
    <defs></defs>
    <g id="Page-1" stroke="none" stroke-width="1" fill="none" fill-rule="evenodd" sketch:type="MSPage">
        <g id="helveticaneue-copy" sketch:type="MSLayerGroup" fill="#FFFFFF">
            <g id="Description-+-He" transform="translate(9.000000, 36.000000)">
                <text id="Description" sketch:type="MSTextLayer" font-family="Helvetica Neue" font-size="13" font-weight="normal" sketch:alignment="middle">
                    <tspan x="7.323" y="67">HELVETICA NEUE</tspan>
                </text>
                <path d="M23,0 L23,46.41 L33.205,46.41 L33.205,26.39 L51.99,26.39 L51.99,46.41 L62.195,46.41 L62.195,0 L51.99,0 L51.99,17.81 L33.205,17.81 L33.205,0 L23,0 Z M77.795,31.85 L102.04,31.85 C102.213334,29.249987 101.99667,26.7583453 101.39,24.375 C100.78333,21.9916548 99.7975068,19.8683427 98.4325,18.005 C97.0674932,16.1416574 95.323344,14.6575055 93.2,13.5525 C91.076656,12.4474945 88.5850143,11.895 85.725,11.895 C83.1683206,11.895 80.8391772,12.3499955 78.7375,13.26 C76.6358228,14.1700046 74.8266742,15.4158254 73.31,16.9975 C71.7933257,18.5791746 70.6233374,20.4533225 69.8,22.62 C68.9766626,24.7866775 68.565,27.1266541 68.565,29.64 C68.565,32.240013 68.9658293,34.6233225 69.7675,36.79 C70.5691707,38.9566775 71.7066593,40.8199922 73.18,42.38 C74.6533407,43.9400078 76.451656,45.1424958 78.575,45.9875 C80.698344,46.8325042 83.0816535,47.255 85.725,47.255 C89.5383524,47.255 92.7883199,46.388342 95.475,44.655 C98.1616801,42.921658 100.154994,40.0400202 101.455,36.01 L93.33,36.01 C93.0266651,37.0500052 92.2033401,38.0358287 90.86,38.9675 C89.5166599,39.8991713 87.9133427,40.365 86.05,40.365 C83.449987,40.365 81.4566736,39.6933401 80.07,38.35 C78.6833264,37.00666 77.9250007,34.8400149 77.795,31.85 Z M92.81,26 L77.795,26 C77.8383336,25.3499968 77.9791655,24.6133374 78.2175,23.79 C78.4558345,22.9666625 78.8674971,22.1866703 79.4525,21.45 C80.0375029,20.7133297 80.8174951,20.0958358 81.7925,19.5975 C82.7675049,19.0991642 83.9916593,18.85 85.465,18.85 C87.7183446,18.85 89.3974945,19.4566606 90.5025,20.67 C91.6075055,21.8833394 92.3766645,23.6599883 92.81,26 Z" id="He" sketch:type="MSShapeGroup"></path>
            </g>
        </g>
    </g>
</svg>