<?xml version="1.0" encoding="UTF-8" standalone="no"?>
<svg width="140px" height="140px" viewBox="0 0 140 140" version="1.1" xmlns="http://www.w3.org/2000/svg" xmlns:xlink="http://www.w3.org/1999/xlink" xmlns:sketch="http://www.bohemiancoding.com/sketch/ns">
    <title>lucidagrande</title>
    <description>Created with Sketch (http://www.bohemiancoding.com/sketch)</description>
    <defs></defs>
    <g id="Page-1" stroke="none" stroke-width="1" fill="none" fill-rule="evenodd" sketch:type="MSPage">
        <g id="lucidagrande-copy" sketch:type="MSLayerGroup" fill="#FFFFFF">
            <g id="Description-+-Lu" transform="translate(9.000000, 36.000000)">
                <text id="Description" sketch:type="MSTextLayer" font-family="Helvetica Neue" font-size="13" font-weight="normal" sketch:alignment="middle">
                    <tspan x="8.883" y="67">LUCIDA GRANDE</tspan>
                </text>
                <path d="M28,46.25 L28,0 L37.625,0 L37.625,39.6875 L58.46875,39.6875 L58.46875,46.25 L28,46.25 Z M86.4375,46.25 L86.4375,39.78125 C83.437485,44.6146075 79.5416906,47.03125 74.75,47.03125 C71.6874847,47.03125 69.2708422,46.0625097 67.5,44.125 C65.7291578,42.1874903 64.84375,39.5416834 64.84375,36.1875 L64.84375,11.9375 L74.09375,11.9375 L74.09375,33.90625 C74.09375,37.8021028 75.3958203,39.75 78,39.75 C80.9166812,39.75 83.7291531,37.6771041 86.4375,33.53125 L86.4375,11.9375 L95.6875,11.9375 L95.6875,46.25 L86.4375,46.25 Z" id="Lu" sketch:type="MSShapeGroup"></path>
            </g>
        </g>
    </g>
</svg>