<?xml version="1.0" encoding="UTF-8" standalone="no"?>
<svg width="140px" height="140px" viewBox="0 0 140 140" version="1.1" xmlns="http://www.w3.org/2000/svg" xmlns:xlink="http://www.w3.org/1999/xlink" xmlns:sketch="http://www.bohemiancoding.com/sketch/ns">
    <title>novecentowide</title>
    <description>Created with Sketch (http://www.bohemiancoding.com/sketch)</description>
    <defs></defs>
    <g id="Page-1" stroke="none" stroke-width="1" fill="none" fill-rule="evenodd" sketch:type="MSPage">
        <g id="novecentowide-copy" sketch:type="MSLayerGroup" fill="#FFFFFF">
            <g id="Description-+-NW" transform="translate(9.000000, 37.000000)">
                <text id="Description" sketch:type="MSTextLayer" font-family="Helvetica Neue" font-size="13" font-weight="normal" sketch:alignment="middle">
                    <tspan x="11.7625" y="66">NOVECENTO W.</tspan>
                </text>
                <path d="M38.8390024,0 L38.8390024,13.74 C38.8390024,20.82 38.9572148,27.66 38.8981086,27.66 L38.8390024,27.66 C38.7798963,27.66 33.578554,20.16 30.7414582,16.38 L18.7429073,0 L11,0 L11,42 L19.2157566,42 L19.2157566,28.44 C19.2157566,20.1 19.0975442,14.04 19.1566504,14.04 L19.2157566,14.04 C19.2748627,14.04 23.8260372,20.64 27.5497254,25.8 L39.3118517,42 L47.054759,42 L47.054759,0 L38.8390024,0 Z M101.011059,0 L94.5093807,22.68 C93.4454698,26.52 92.8544082,29.22 92.795302,29.22 L92.7361959,29.22 C92.6770897,29.22 92.0860281,26.52 90.7265863,22.68 L84.4613331,4.5 L76.8366382,4.5 L70.571385,22.68 C69.2119433,26.52 68.6208816,29.22 68.5617755,29.22 L68.5026693,29.22 C68.4435631,29.22 67.8525015,26.52 66.8476968,22.68 L60.3460189,0 L51.5983069,0 L64.6016626,42 L72.2854637,42 L78.6689292,21.72 C80.1465833,16.98 80.5603264,14.28 80.6194326,14.28 L80.6785387,14.28 C80.7376449,14.28 81.2104942,16.98 82.6881483,21.72 L89.0716138,42 L96.6963087,42 L109.699664,0 L101.011059,0 Z" id="NW" sketch:type="MSShapeGroup"></path>
            </g>
        </g>
    </g>
</svg>