<?xml version="1.0" encoding="UTF-8" standalone="no"?>
<svg width="140px" height="140px" viewBox="0 0 140 140" version="1.1" xmlns="http://www.w3.org/2000/svg" xmlns:xlink="http://www.w3.org/1999/xlink" xmlns:sketch="http://www.bohemiancoding.com/sketch/ns">
    <title>ptsans</title>
    <description>Created with Sketch (http://www.bohemiancoding.com/sketch)</description>
    <defs></defs>
    <g id="Page-1" stroke="none" stroke-width="1" fill="none" fill-rule="evenodd" sketch:type="MSPage">
        <g id="ptsans-copy" sketch:type="MSLayerGroup" fill="#FFFFFF">
            <g id="Description-+-Pt" transform="translate(9.000000, 36.000000)">
                <text id="Description" sketch:type="MSTextLayer" font-family="Helvetica Neue" font-size="13" font-weight="normal" sketch:alignment="middle">
                    <tspan x="33.921" y="67">PT SANS</tspan>
                </text>
                <path d="M37,0.99 C38.6720084,0.59399802 40.4759903,0.33000066 42.412,0.198 C44.3480097,0.06599934 46.2619905,0 48.154,0 C50.1780101,0 52.2349895,0.19799802 54.325,0.594 C56.4150104,0.99000198 58.3179914,1.71599472 60.034,2.772 C61.7500086,3.82800528 63.1469946,5.27999076 64.225,7.128 C65.3030054,8.97600924 65.842,11.3299857 65.842,14.19 C65.842,17.0060141 65.3360051,19.3819903 64.324,21.318 C63.3119949,23.2540097 61.9700084,24.826994 60.298,26.037 C58.6259916,27.2470061 56.7120108,28.1159974 54.556,28.644 C52.3999892,29.1720026 50.1780114,29.436 47.89,29.436 L46.801,29.436 C46.2949975,29.436 45.7670028,29.4250001 45.217,29.403 C44.6669973,29.3809999 44.1280026,29.3480002 43.6,29.304 C43.0719974,29.2599998 42.6980011,29.2160002 42.478,29.172 L42.478,46.728 L37,46.728 L37,0.99 Z M48.286,4.752 C47.1419943,4.752 46.0420053,4.77399978 44.986,4.818 C43.9299947,4.86200022 43.0940031,4.97199912 42.478,5.148 L42.478,24.288 C42.6980011,24.3760004 43.0499976,24.4309999 43.534,24.453 C44.0180024,24.4750001 44.5239974,24.4969999 45.052,24.519 C45.5800026,24.5410001 46.0859976,24.552 46.57,24.552 L47.626,24.552 C49.1220075,24.552 50.6069926,24.4090014 52.081,24.123 C53.5550074,23.8369986 54.8859941,23.3200037 56.074,22.572 C57.2620059,21.8239963 58.2189964,20.7680068 58.945,19.404 C59.6710036,18.0399932 60.034,16.3020106 60.034,14.19 C60.034,12.385991 59.6930034,10.8790061 59.011,9.669 C58.3289966,8.45899395 57.4270056,7.49100363 56.305,6.765 C55.1829944,6.03899637 53.918007,5.52200154 52.51,5.214 C51.101993,4.90599846 49.694007,4.752 48.286,4.752 Z M69.01,13.728 L74.158,13.728 L74.158,7.194 L79.438,5.676 L79.438,13.728 L88.414,13.728 L88.414,18.348 L79.438,18.348 L79.438,36.63 C79.438,38.9180114 79.7239971,40.5349953 80.296,41.481 C80.8680029,42.4270047 81.8359932,42.9 83.2,42.9 C84.3440057,42.9 85.311996,42.7790012 86.104,42.537 C86.896004,42.2949988 87.7759952,41.976002 88.744,41.58 L89.932,45.606 C88.7439941,46.1780029 87.446007,46.6399982 86.038,46.992 C84.629993,47.3440018 83.1120081,47.52 81.484,47.52 C78.7999866,47.52 76.9080055,46.7610076 75.808,45.243 C74.7079945,43.7249924 74.158,41.1840178 74.158,37.62 L74.158,18.348 L69.01,18.348 L69.01,13.728 Z" id="Pt" sketch:type="MSShapeGroup"></path>
            </g>
        </g>
    </g>
</svg>