<?xml version="1.0" encoding="UTF-8" standalone="no"?>
<svg width="140px" height="140px" viewBox="0 0 140 140" version="1.1" xmlns="http://www.w3.org/2000/svg" xmlns:xlink="http://www.w3.org/1999/xlink" xmlns:sketch="http://www.bohemiancoding.com/sketch/ns">
    <title>varelaround</title>
    <description>Created with Sketch (http://www.bohemiancoding.com/sketch)</description>
    <defs></defs>
    <g id="Page-1" stroke="none" stroke-width="1" fill="none" fill-rule="evenodd" sketch:type="MSPage">
        <g id="varelaround-copy" sketch:type="MSLayerGroup" fill="#FFFFFF">
            <g id="Description-+-Va" transform="translate(9.000000, 36.000000)">
                <text id="Description" sketch:type="MSTextLayer" font-family="Helvetica Neue" font-size="13" font-weight="normal" sketch:alignment="middle">
                    <tspan x="11.405" y="67">VARELA ROUND</tspan>
                </text>
                <path d="M42.995,40.105 L58.27,2.015 C58.8333362,0.67165995 59.6674945,0 60.7725,0 C61.8775055,0 62.6899974,0.28166385 63.21,0.845 C63.7300026,1.40833615 63.99,2.01499675 63.99,2.665 C63.99,3.31500325 63.9250006,3.79166515 63.795,4.095 L47.74,43.03 C46.8299954,45.0233433 45.4866756,46.02 43.71,46.02 L42.28,46.02 C40.5033244,46.02 39.1600045,45.0233433 38.25,43.03 L22.195,4.095 C22.0649994,3.79166515 22,3.31500325 22,2.665 C22,2.01499675 22.2599974,1.40833615 22.78,0.845 C23.3000026,0.28166385 23.9499961,0 24.73,0 C26.1600071,0 27.1566639,0.67165995 27.72,2.015 L42.995,40.105 Z M71.92,14.235 C75.5600182,12.6749922 79.3299805,11.895 83.23,11.895 C87.6500221,11.895 91.0733212,13.2383199 93.5,15.925 C95.6666775,18.2650117 96.75,21.1899824 96.75,24.7 L96.75,43.095 C96.75,43.9183374 96.4575029,44.6116638 95.8725,45.175 C95.2874971,45.7383361 94.5833375,46.02 93.76,46.02 C92.9366625,46.02 92.2433362,45.7383361 91.68,45.175 C91.1166638,44.6116638 90.835,43.9183374 90.835,43.095 L90.835,41.405 C89.6649941,42.6183394 88.0941765,43.7449948 86.1225,44.785 C84.1508235,45.8250052 81.6483485,46.345 78.615,46.345 C75.624985,46.345 73.1333433,45.478342 71.14,43.745 C69.0599896,41.9249909 68.02,39.5416814 68.02,36.595 C68.02,33.3883173 69.2333212,30.8750091 71.66,29.055 C74.3033466,27.0616567 78.0733088,26.065 82.97,26.065 L90.835,26.065 L90.835,25.545 C90.835,22.6416521 90.1200071,20.5725062 88.69,19.3375 C87.2599929,18.1024938 85.0716814,17.485 82.125,17.485 C79.6116541,17.485 76.7300162,18.0049948 73.48,19.045 C73.1333316,19.1316671 72.7433355,19.175 72.31,19.175 C71.8766645,19.175 71.4216691,18.9475023 70.945,18.4925 C70.4683309,18.0374977 70.23,17.3333381 70.23,16.38 C70.23,15.4266619 70.7933277,14.711669 71.92,14.235 Z M73.935,35.945 C73.935,39.411684 76.2316437,41.145 80.825,41.145 C82.8616768,41.145 84.7574912,40.6466717 86.5125,39.65 C88.2675088,38.6533284 89.7083277,37.526673 90.835,36.27 L90.835,30.81 L83.75,30.81 C80.6733179,30.81 78.268342,31.1999961 76.535,31.98 C74.801658,32.7600039 73.935,34.0816574 73.935,35.945 Z" id="Va" sketch:type="MSShapeGroup"></path>
            </g>
        </g>
    </g>
</svg>